<?xml version="1.0" standalone="no"?>
<!DOCTYPE svg PUBLIC "-//W3C//DTD SVG 1.1//EN" "http://www.w3.org/Graphics/SVG/1.1/DTD/svg11.dtd" >
<svg xmlns="http://www.w3.org/2000/svg">
<metadata></metadata>
<defs>
<font id="bodoni_recut_fsitalic" horiz-adv-x="500" >
<font-face units-per-em="1000" ascent="719" descent="-281" />
<missing-glyph horiz-adv-x="250" />
<glyph unicode="&#xfb01;" horiz-adv-x="496" d="M30 -48l102 421h-88l5 20h88q17 68 35 110t47 80q69 94 160 94q44 0 73 -23t29 -58q0 -23 -14 -38t-36 -15q-20 0 -32.5 13.5t-12.5 34.5q0 26 21 40q12 8 12 13q0 16 -40 16q-90 0 -142 -211l-14 -56h226l-75 -312q-7 -29 -7 -37q0 -24 20 -24q19 0 50 34q20 24 43 76 l16 -7q-30 -69 -63 -98q-40 -35 -83 -35q-29 0 -48 17.5t-19 44.5q0 14 12 63l62 258h-139l-74 -311q-22 -95 -40 -142.5t-47 -93.5q-28 -44 -66 -68.5t-78 -24.5q-32 0 -52.5 15t-20.5 37q0 17 10.5 28t26.5 11q14 0 22.5 -8.5t8.5 -21.5q0 -11 -8 -23q-5 -5 -5 -9 q0 -12 25 -12q26 0 47 23q17 19 29 52t34 127z" />
<glyph unicode="&#xfb02;" horiz-adv-x="499" d="M30 -48l102 421h-88l5 20h88q17 68 35 110t47 80q69 94 160 94q26 0 51 -10l87 10l-144 -598q-7 -30 -7 -36q0 -9 6 -15t16 -6q37 0 93 110l16 -7q-63 -135 -149 -135q-28 0 -45 17t-17 44q0 28 22 118l79 330q24 99 24 122q0 17 -12 28t-31 11q-44 0 -73 -47.5 t-58 -163.5l-14 -56h92l-5 -20h-92l-74 -311q-22 -95 -40 -142.5t-47 -93.5q-28 -44 -66 -68.5t-78 -24.5q-32 0 -52.5 15t-20.5 37q0 17 10.5 28t26.5 11q14 0 22.5 -8.5t8.5 -21.5q0 -11 -8 -23q-5 -5 -5 -9q0 -12 25 -12q26 0 47 23q17 19 29 52t34 127z" />
<glyph unicode="&#xfb03;" horiz-adv-x="721" d="M30 -48l102 421h-88l5 20h88q29 120 77 190q66 94 151 94q31 0 50 -14.5t19 -38.5q0 -19 -13.5 -32t-32.5 -13q-15 0 -25 10t-10 24q0 16 17 27q7 4 7 10q0 10 -13 10q-24 0 -45 -19q-27 -25 -44 -65.5t-38 -126.5l-14 -56h139q32 123 82 190q70 94 160 94q44 0 73 -23 t29 -58q0 -23 -14 -38t-36 -15q-20 0 -32.5 13.5t-12.5 34.5q0 25 22 40q12 8 12 13q0 16 -40 16q-94 0 -143 -211l-13 -56h225l-75 -312q-6 -28 -6 -37q0 -24 20 -24q19 0 50 34q21 25 42 76l17 -7q-31 -69 -64 -98q-38 -35 -82 -35q-29 0 -48 17.5t-19 44.5q0 19 11 63 l62 258h-138l-75 -311q-24 -96 -41 -143.5t-46 -92.5q-61 -93 -144 -93q-32 0 -52.5 15t-20.5 37q0 17 10.5 28t26.5 11q14 0 23 -8.5t9 -21.5q0 -11 -9 -23q-5 -5 -5 -9q0 -12 25 -12t48 23q17 19 28.5 52t34.5 127l101 421h-139l-74 -311q-22 -95 -40 -142.5t-47 -93.5 q-28 -44 -66 -68.5t-78 -24.5q-32 0 -52.5 15t-20.5 37q0 17 10.5 28t26.5 11q14 0 22.5 -8.5t8.5 -21.5q0 -11 -8 -23q-5 -5 -5 -9q0 -12 25 -12q26 0 47 23q17 19 29 52t34 127z" />
<glyph unicode="&#xfb04;" horiz-adv-x="725" d="M30 -48l102 421h-88l5 20h88q29 120 77 190q66 94 151 94q31 0 50 -14.5t19 -38.5q0 -19 -13.5 -32t-32.5 -13q-15 0 -25 10t-10 24q0 16 17 27q7 4 7 10q0 10 -13 10q-24 0 -45 -19q-27 -25 -44 -65.5t-38 -126.5l-14 -56h139q17 68 35 110t47 80q70 94 160 94 q27 0 52 -10l86 10l-143 -598q-7 -32 -7 -36q0 -9 6 -15t15 -6q38 0 94 110l15 -7q-33 -70 -68.5 -102.5t-79.5 -32.5q-28 0 -45 17t-17 44q0 32 21 118l80 330q23 95 23 122q0 17 -12 28t-31 11q-44 0 -74 -48t-57 -163l-13 -56h91l-5 -20h-91l-75 -311q-24 -96 -41 -143.5 t-46 -92.5q-61 -93 -144 -93q-32 0 -52.5 15t-20.5 37q0 17 10.5 28t26.5 11q14 0 23 -8.5t9 -21.5q0 -11 -9 -23q-5 -5 -5 -9q0 -12 25 -12t48 23q17 19 28.5 52t34.5 127l101 421h-139l-74 -311q-22 -95 -40 -142.5t-47 -93.5q-28 -44 -66 -68.5t-78 -24.5q-32 0 -52.5 15 t-20.5 37q0 17 10.5 28t26.5 11q14 0 22.5 -8.5t8.5 -21.5q0 -11 -8 -23q-5 -5 -5 -9q0 -12 25 -12q26 0 47 23q17 19 29 52t34 127z" />
<glyph horiz-adv-x="0" />
<glyph horiz-adv-x="333" />
<glyph unicode=" "  horiz-adv-x="250" />
<glyph unicode="&#x09;" horiz-adv-x="250" />
<glyph unicode="&#xa0;" horiz-adv-x="250" />
<glyph unicode="!" horiz-adv-x="307" d="M159 209q31 204 46 381q4 46 19 66.5t44 20.5q22 0 38 -13.5t16 -32.5q0 -16 -6.5 -36t-45.5 -124q-5 -13 -32 -90.5t-28 -84.5l-27 -87h-24zM81 50q0 25 17.5 42.5t42.5 17.5t42.5 -18t17.5 -43q0 -24 -17.5 -41.5t-41.5 -17.5q-25 0 -43 17.5t-18 42.5z" />
<glyph unicode="&#x22;" horiz-adv-x="286" d="M271 413l-26 163q-3 15 -3 41t11.5 43t29.5 17q19 0 30.5 -17t11.5 -43q0 -17 -4 -41l-26 -163h-24zM141 413l-25 163q-4 28 -4 41q0 26 11.5 43t29.5 17q19 0 30.5 -17t11.5 -43q0 -17 -4 -41l-26 -163h-24z" />
<glyph unicode="#" d="M57 0l60 213h-86l4 27h89l50 175h-85l3 27h89l58 205h72l-57 -205h110l57 205h73l-58 -205h85l-3 -27h-89l-50 -175h86l-4 -27h-89l-60 -213h-72l60 213h-111l-60 -213h-72zM197 240h110l50 175h-111z" />
<glyph unicode="$" d="M162 -104l20 94q-65 10 -103 33q-67 41 -67 105q0 25 16 44t37 19q19 0 32.5 -13.5t13.5 -33.5q0 -13 -8 -30q-10 -24 -10 -37q0 -53 94 -67l57 271q-87 61 -119 103.5t-32 97.5q0 79 61.5 126t165.5 47h3l19 86h29l-18 -86q59 -8 98 -45t39 -84q0 -22 -11.5 -36.5 t-29.5 -14.5q-16 0 -27 12t-11 29q0 12 7 29q5 18 5 24q0 23 -20 40t-55 23l-53 -246q73 -53 93 -73q71 -67 71 -145q0 -79 -64.5 -129t-166.5 -50q-9 0 -17 1l-20 -94h-29zM270 404l49 229q-65 0 -105 -28.5t-40 -74.5q0 -44 37 -78q16 -16 59 -48zM216 10q70 -1 115 32 t45 86q0 49 -51 94q-15 14 -56 41z" />
<glyph unicode="%" horiz-adv-x="737" d="M197 320q-50 0 -81.5 35.5t-31.5 90.5q0 80 53.5 144t120.5 64q48 0 79 -36.5t31 -92.5q0 -79 -52.5 -142t-118.5 -63zM190 0l376 647h31l-375 -647h-32zM198 338q47 0 70 63q13 35 26 94t13 85q0 55 -51 55q-45 0 -69 -57q-15 -35 -28 -93.5t-13 -91.5q0 -55 52 -55z M420 120q0 79 53.5 143t119.5 64q48 0 79 -36.5t31 -92.5q0 -79 -52.5 -141.5t-118.5 -62.5q-49 0 -80.5 35t-31.5 91zM482 67q0 -55 51 -55q46 0 70 63q13 35 26 94t13 84q0 55 -50 55q-45 0 -69 -56q-15 -35 -28 -94t-13 -91z" />
<glyph unicode="&#x26;" horiz-adv-x="733" d="M688 108l16 -11q-71 -107 -166 -107q-76 0 -138 68q-49 -39 -86.5 -53.5t-87.5 -14.5q-87 0 -143 47.5t-56 121.5q0 147 225 226q-18 64 -18 113q0 82 47.5 130.5t127.5 48.5q57 0 94 -29.5t37 -74.5q0 -97 -188 -169q43 -123 100 -251q33 48 79 126q42 70 68 94.5 t59 24.5q25 0 40 -15t15 -40q0 -21 -12.5 -35t-31.5 -14q-17 0 -27.5 10t-10.5 27q0 7 2 15q1 5 1 8q0 11 -9 11t-20 -13q-13 -16 -41 -63q-14 -22 -45 -74q-35 -57 -55 -83q33 -60 48 -77q29 -32 63 -32q55 0 113 85zM347 421l5 3q54 24 85.5 67t31.5 92q0 34 -19 54 t-51 20q-38 0 -61.5 -24.5t-23.5 -63.5q0 -46 33 -148zM135 170q0 -67 32.5 -109t85.5 -42q62 0 131 56q-62 85 -127 291q-122 -65 -122 -196z" />
<glyph unicode="'" horiz-adv-x="156" d="M141 413l-25 163q-4 28 -4 41q0 26 11.5 43t29.5 17q19 0 30.5 -17t11.5 -43q0 -17 -4 -41l-26 -163h-24z" />
<glyph unicode="(" horiz-adv-x="332" d="M392 667h31q-111 -74 -188 -203q-51 -85 -79 -181t-28 -182q0 -160 90 -288h-27q-154 187 -154 364q0 86 37.5 172.5t106.5 159.5q71 74 211 158z" />
<glyph unicode=")" horiz-adv-x="332" d="M-45 -187h-31q111 73 188 204q107 182 107 362q0 160 -90 288h27q154 -187 154 -364q0 -86 -37.5 -172.5t-106.5 -158.5q-72 -75 -211 -159z" />
<glyph unicode="*" d="M271 427l-17 -26q-19 -29 -31 -39.5t-26 -10.5t-25 11t-11 26q0 16 17.5 31t67.5 42l45 24l-1 11l-53 15l-30 8q-38 10 -52.5 20.5t-14.5 28.5q0 15 11 26t25 11q22 0 85 -60l37 -35l10 4l-2 56q-2 44 -2 54q0 57 37 57q16 0 26.5 -10t10.5 -26q0 -22 -32 -88l-22 -46 l7 -8l52 19l29 11q39 14 52 14q16 0 26.5 -10.5t10.5 -26.5q0 -36 -44 -36q-25 0 -73 6l-52 7l-5 -9l35 -44q35 -44 42.5 -56.5t7.5 -26.5t-11 -25t-26 -11q-20 0 -30.5 21t-22.5 84l-10 51l-10 2z" />
<glyph unicode="+" d="M258 130v176h-186v35h186v176h35v-176h186v-35h-186v-176h-35z" />
<glyph unicode="," horiz-adv-x="254" d="M24 -145l-10 16q120 67 120 131q0 14 -11 14q-3 0 -9 -7q-14 -16 -38 -16q-20 0 -34 15.5t-14 37.5q0 24 18 41t44 17q31 0 53.5 -25t22.5 -59q0 -94 -142 -165z" />
<glyph unicode="-" horiz-adv-x="193" d="M-8 167l14 66h194l-15 -66h-193z" />
<glyph unicode="." horiz-adv-x="254" d="M41 50q0 25 17.5 42.5t43.5 17.5q24 0 41.5 -17.5t17.5 -42.5t-17.5 -42.5t-41.5 -17.5q-25 0 -43 17.5t-18 42.5z" />
<glyph unicode="/" horiz-adv-x="311" d="M-2 -187h-58l350 854h59z" />
<glyph unicode="0" d="M214 -10q-72 0 -117.5 64t-45.5 165q0 83 28 169t75 148q43 57 92 89t94 32q71 0 115 -66t44 -173q0 -79 -30.5 -169t-77.5 -152q-82 -107 -177 -107zM133 109q0 -46 21 -72.5t59 -26.5q43 0 72.5 32t52.5 103q27 81 54 210t27 178q0 104 -80 104q-39 0 -67.5 -29 t-53.5 -93q-31 -81 -58 -211t-27 -195z" />
<glyph unicode="1" d="M62 0l4 20h107l116 548q1 7 2.5 12.5t2 7.5l1 4t0.5 3.5v2.5q0 18 -13.5 24.5t-50.5 6.5q-33 0 -54 -2l4 20q94 -1 222 15l-136 -642h122l-5 -20h-322z" />
<glyph unicode="2" d="M16 0l-1 54q182 158 238 219q121 133 121 246q0 52 -26 81.5t-72 29.5q-48 0 -86 -27.5t-38 -62.5q0 -21 27 -25q41 -7 41 -45q0 -20 -13 -33t-33 -13q-26 0 -43.5 21.5t-17.5 55.5q0 65 55.5 110.5t134.5 45.5q78 0 125 -38.5t47 -102.5q0 -56 -39 -111t-149 -152 q-52 -46 -140 -122l-59 -51h233q58 0 76.5 14.5t31.5 68.5h22l-35 -163h-400z" />
<glyph unicode="3" d="M74 59q0 -20 27.5 -34.5t64.5 -14.5q73 0 119.5 58.5t46.5 150.5q0 120 -104 120q-8 0 -50 -8q-12 -3 -13 -3q-15 0 -15 15q0 17 22 17q3 0 22 -2q6 -1 17 -1q63 0 107.5 54.5t44.5 131.5q0 44 -21.5 68.5t-59.5 24.5q-33 0 -59.5 -13.5t-26.5 -30.5q0 -5 14 -22 q9 -10 9 -25q0 -18 -12.5 -30.5t-30.5 -12.5q-19 0 -31 12.5t-12 32.5q0 45 50.5 77.5t120.5 32.5q69 0 111 -34.5t42 -91.5q0 -103 -130 -160q-16 -7 -61 -21q67 -5 106 -34q61 -43 61 -117q0 -84 -78.5 -146.5t-183.5 -62.5q-62 0 -101 31t-39 80q0 27 16 46t38 19 q18 0 31 -12.5t13 -30.5q0 -36 -41 -49q-14 -4 -14 -15z" />
<glyph unicode="4" d="M131 0l5 20h86l37 171h-234l-1 25l360 431h58l-91 -431h92l12 55h23l-34 -161h-23l17 81h-92l-37 -171h87l-5 -20h-260zM53 216h211l72 337z" />
<glyph unicode="5" d="M189 567l-50 -198q53 23 109 23q81 0 136.5 -48t55.5 -118q0 -92 -80 -164t-183 -72q-60 0 -99.5 32t-39.5 80q0 28 15 46.5t38 18.5q18 0 30 -12t12 -30q0 -32 -36 -48q-14 -5 -14 -15q0 -19 27 -35t60 -16q75 0 115 53q53 69 53 167q0 62 -30.5 98t-82.5 36 q-43 0 -98 -27h-23l77 309h231q27 0 34.5 3t16.5 17l5 8h22q-25 -40 -28 -47q-25 -43 -43 -52t-77 -9h-153z" />
<glyph unicode="6" d="M503 685l-4 -22q-112 -2 -199.5 -87t-119.5 -222q57 76 140 76q68 0 112.5 -51t44.5 -129q0 -102 -73.5 -181t-168.5 -79q-79 0 -129.5 63t-50.5 162q0 105 58.5 210t156.5 176q110 78 233 84zM141 138q0 -128 94 -128q68 0 107 86q15 36 27.5 99.5t12.5 107.5 q0 50 -20 78.5t-56 28.5q-32 0 -64 -23t-55 -62q-20 -35 -33 -88.5t-13 -98.5z" />
<glyph unicode="7" d="M161 647h357q-16 -45 -32.5 -75.5t-65.5 -108.5q-78 -123 -107.5 -198.5t-43.5 -185.5q-6 -50 -16 -65q-17 -24 -45 -24q-21 0 -35 16.5t-14 41.5q0 53 69 166q29 50 158 247q37 57 65 106h-283l-19 -86h-23z" />
<glyph unicode="8" d="M37 149q0 74 53 126.5t141 66.5q-115 35 -115 136q0 75 62 127t151 52q73 0 120.5 -40t47.5 -101q0 -62 -48.5 -110t-133.5 -69q67 -14 103.5 -53t36.5 -95q0 -82 -68.5 -140.5t-165.5 -58.5q-84 0 -134 43.5t-50 115.5zM283 349q65 0 98 67q12 23 21 64t9 72 q0 85 -80 85q-57 0 -90 -49q-16 -25 -28 -71t-12 -85q0 -38 22 -60.5t60 -22.5zM129 100q0 -43 24 -66.5t68 -23.5q77 0 110 77q10 24 19 70.5t9 77.5q0 45 -23.5 69.5t-65.5 24.5q-58 0 -96 -54q-18 -26 -31.5 -78t-13.5 -97z" />
<glyph unicode="9" d="M61 -23q115 17 193 94t113 206q-56 -64 -133 -64q-69 0 -113.5 49.5t-44.5 126.5q0 107 75.5 187.5t175.5 80.5q80 0 128 -56.5t48 -151.5q0 -100 -49.5 -201t-132.5 -173q-116 -100 -264 -117zM248 234q70 0 117 82q21 36 35 95t14 112q0 114 -84 114q-69 0 -109 -79 q-22 -41 -37.5 -104.5t-15.5 -108.5q0 -53 21 -82t59 -29z" />
<glyph unicode=":" horiz-adv-x="254" d="M164 276q-25 0 -43 17.5t-18 42.5t17.5 42.5t42.5 17.5t42.5 -18t17.5 -43q0 -24 -17.5 -41.5t-41.5 -17.5zM40 50q0 25 17.5 42.5t42.5 17.5t42.5 -18t17.5 -43q0 -24 -17.5 -41.5t-41.5 -17.5q-25 0 -43 17.5t-18 42.5z" />
<glyph unicode=";" horiz-adv-x="254" d="M151 274q-25 0 -43 17.5t-18 42.5t17.5 42.5t43.5 17.5q24 0 41.5 -17.5t17.5 -42.5t-17.5 -42.5t-41.5 -17.5zM24 -145l-10 16q120 67 120 131q0 14 -11 14q-3 0 -9 -7q-14 -16 -38 -16q-20 0 -34 15.5t-14 37.5q0 24 18 41t44 17q31 0 53.5 -25t22.5 -59 q0 -94 -142 -165z" />
<glyph unicode="&#x3c;" d="M72 332v6l411 267v-28l-335 -220l335 -223v-74z" />
<glyph unicode="=" d="M72 358v35h407v-35h-407zM72 253v35h407v-35h-407z" />
<glyph unicode="&#x3e;" d="M72 60v28l336 220l-336 223v74l411 -273v-5z" />
<glyph unicode="?" horiz-adv-x="348" d="M105 204q4 89 32 137t97 89q58 34 78 57q29 31 29 70q0 43 -34.5 72.5t-84.5 29.5q-37 0 -71 -20t-34 -42q0 -10 12 -11q40 -5 40 -42q0 -16 -11.5 -28t-28.5 -12q-20 0 -34 17.5t-14 42.5q0 47 40.5 80t99.5 33q69 0 112 -43t43 -113q0 -86 -65 -145q-39 -34 -111 -67 q-40 -18 -57 -42t-17 -63h-21zM38 50q0 25 17.5 42.5t42.5 17.5t42.5 -18t17.5 -43q0 -24 -17.5 -41.5t-41.5 -17.5q-25 0 -43 17.5t-18 42.5z" />
<glyph unicode="@" horiz-adv-x="684" d="M574 9h42q-103 -109 -248 -109q-140 0 -238 98.5t-98 239.5q0 140 98.5 239.5t237.5 99.5q130 0 219 -81t89 -198q0 -65 -30 -120t-85 -90q-50 -32 -109 -32q-50 0 -65 32q-6 12 -6 39q-53 -65 -108 -65q-41 0 -69.5 31.5t-28.5 75.5q0 88 67 166.5t143 78.5q59 0 72 -54 l16 45h74l-82 -225q-21 -55 -21 -77t27 -22q66 0 120 67.5t54 150.5q0 102 -81.5 175.5t-194.5 73.5q-127 0 -216 -90t-89 -219t88.5 -219.5t215.5 -90.5q114 0 206 80zM240 130q0 -23 12 -37t32 -14q55 0 94 76q26 52 45 107t19 80q0 23 -12.5 38.5t-31.5 15.5 q-23 0 -47.5 -19.5t-43.5 -53.5q-27 -47 -47 -105t-20 -88z" />
<glyph unicode="A" horiz-adv-x="594" d="M8 20l485 647h18l-51 -647h84l-4 -20h-276l5 20h87l17 193h-196l-139 -193h95l-5 -20h-195l4 20h71zM197 233h177l23 268z" />
<glyph unicode="B" horiz-adv-x="616" d="M-8 0l4 20h80l134 627h-80l4 20h236q93 0 122 -7q51 -12 80 -48.5t29 -88.5q0 -92 -88 -139q-45 -25 -115 -35q166 -34 166 -164q0 -50 -25 -92t-68 -65q-53 -28 -205 -28h-274zM255 360h60q64 0 93 8.5t46 31.5q19 25 31.5 74t12.5 95q0 49 -28 66q-13 8 -29 10t-70 2 h-55zM183 20h76q64 0 90 5.5t46 23.5q28 27 44 94q16 69 16 109q0 59 -52 78q-29 10 -93 10h-59z" />
<glyph unicode="C" horiz-adv-x="587" d="M491 0l-25 44q-88 -57 -165 -57q-47 0 -95.5 21.5t-80.5 56.5q-30 33 -47.5 81.5t-17.5 98.5q0 106 52.5 207.5t137 164.5t171.5 63q79 0 131 -61l34 48h20l-41 -194h-20q1 15 1 30q0 74 -30 114t-85 40q-107 0 -179 -137q-34 -64 -55.5 -155.5t-21.5 -170.5 q0 -86 39 -135t108 -49q63 0 113 42t95 133h20l-39 -185h-20z" />
<glyph unicode="D" horiz-adv-x="660" d="M-8 0l4 20h80l134 627h-80l4 20h215q81 0 124 -10t81 -37q47 -35 73 -93t26 -131q0 -98 -46.5 -194.5t-118.5 -145.5q-60 -42 -137 -51q-38 -5 -124 -5h-235zM183 20h43q73 0 106.5 6.5t61.5 25.5q71 47 114 196q35 120 35 240q0 94 -55 132q-22 16 -47 21.5t-78 5.5h-47 z" />
<glyph unicode="E" horiz-adv-x="583" d="M-8 0l4 20h80l134 627h-80l4 20h480l-36 -168h-20q5 26 5 43q0 57 -34 85q-16 13 -41 16.5t-93 3.5h-79l-62 -292h43q68 0 95 39q15 21 26 77h20l-56 -264h-20q11 48 11 70q0 32 -18.5 45t-62.5 13h-42l-67 -315h76q82 0 124.5 11t73.5 41q43 42 69 129h20l-43 -201h-511 z" />
<glyph unicode="F" horiz-adv-x="545" d="M-8 0l4 20h80l134 627h-80l4 20h490l-42 -196h-20q5 35 5 60q0 75 -48 101q-27 15 -95 15h-108l-61 -290h79q68 0 95 39q15 21 26 77h20l-56 -265h-20q11 48 11 71q0 32 -18.5 45t-62.5 13h-79l-67 -317h80l-4 -20h-267z" />
<glyph unicode="G" horiz-adv-x="658" d="M592 475h-20q1 8 1 20q0 79 -42 121q-41 41 -101 41q-108 0 -180 -144q-33 -67 -54 -159t-21 -171q0 -84 34 -128.5t99 -44.5t103 52.5t55 165.5h-91l4 20h278l-5 -20h-64q-23 -101 -77 -159q-35 -38 -88.5 -60t-112.5 -22q-109 0 -177 79.5t-68 205.5q0 77 30.5 152 t79.5 131t115 90.5t134 34.5q96 0 150 -68l39 55h20z" />
<glyph unicode="H" horiz-adv-x="711" d="M-8 0l4 20h80l134 627h-80l4 20h267l-5 -20h-80l-61 -288h267l62 288h-80l4 20h267l-5 -20h-80l-133 -627h80l-4 -20h-267l4 20h80l68 319h-267l-68 -319h80l-4 -20h-267z" />
<glyph unicode="I" horiz-adv-x="337" d="M-8 0l4 20h80l134 627h-80l4 20h267l-5 -20h-80l-133 -627h80l-4 -20h-267z" />
<glyph unicode="J" horiz-adv-x="378" d="M370 647l-98 -461q-31 -142 -79 -201q-54 -65 -125 -65q-43 0 -73 25.5t-30 60.5q0 23 15 39.5t36 16.5q19 0 31.5 -12.5t12.5 -30.5q0 -23 -19 -41q-9 -10 -9 -18q0 -7 9 -13t20 -6q29 0 48 33.5t37 118.5l118 554h-80l4 20h267l-5 -20h-80z" />
<glyph unicode="K" horiz-adv-x="667" d="M352 0l4 20h96l-185 336l313 291h-104l4 20h210l-4 -20h-73l-259 -241l213 -386h71l-4 -20h-282zM-8 0l4 20h80l134 627h-80l4 20h267l-5 -20h-80l-133 -627h80l-4 -20h-267z" />
<glyph unicode="L" horiz-adv-x="551" d="M-8 0l4 20h80l134 627h-80l4 20h267l-5 -20h-80l-133 -627h114q62 0 90 9.5t53 38.5q34 41 66 127h20l-41 -195h-493z" />
<glyph unicode="M" horiz-adv-x="766" d="M-12 0l4 20h80l134 627h-80l4 20h202l42 -494l250 494h205l-4 -20h-80l-133 -627h80l-5 -20h-266l4 20h80l133 627l-330 -647h-27l-52 647l-133 -627h80l-5 -20h-183z" />
<glyph unicode="N" horiz-adv-x="657" d="M-12 0l4 20h80l134 627h-80l4 20h199l194 -472l96 452h-80l4 20h184l-5 -20h-80l-137 -647h-16l-262 639l-131 -619h80l-5 -20h-183z" />
<glyph unicode="O" horiz-adv-x="649" d="M63 265q0 100 51.5 197t133.5 157.5t167 60.5q100 0 163.5 -78t63.5 -202q0 -75 -30 -151t-78 -133t-111.5 -93t-126.5 -36q-99 0 -166 80t-67 198zM219 38q33 -28 75 -28q46 0 85.5 30t67.5 85q37 73 61 177.5t24 193.5q0 98 -44 136q-28 25 -71 25q-50 0 -93 -33.5 t-71 -95.5q-80 -173 -80 -350q0 -98 46 -140z" />
<glyph unicode="P" horiz-adv-x="574" d="M-8 0l4 20h80l134 627h-80l4 20h257q80 0 107.5 -4.5t54.5 -21.5q64 -42 64 -123q0 -52 -27 -98t-73 -71q-73 -40 -217 -40q-28 0 -55 1l-62 -290h80l-4 -20h-267zM249 331q21 -2 53 -2q73 0 105.5 11t52.5 42q16 25 29.5 84t13.5 106q0 48 -35 66q-18 9 -77 9h-75z" />
<glyph unicode="Q" horiz-adv-x="650" d="M514 -165v-20q-54 -6 -94 -6q-89 0 -142.5 42.5t-53.5 113.5q0 13 3 33q-76 28 -120 100t-44 167q0 100 51.5 197t134.5 157.5t168 60.5q97 0 161 -78.5t64 -197.5q0 -110 -55.5 -211t-148.5 -160q-56 -35 -102 -43q-2 -15 -2 -33q0 -101 80 -116q22 -5 100 -6zM219 38 q33 -28 75 -28q46 0 85.5 30t67.5 85q37 73 61 177.5t24 193.5q0 98 -44 136q-28 25 -71 25q-50 0 -93 -33.5t-71 -95.5q-80 -173 -80 -350q0 -98 46 -140z" />
<glyph unicode="R" horiz-adv-x="655" d="M-8 0l4 20h80l134 627h-80l4 20h274q61 0 88.5 -4.5t52.5 -19.5q27 -16 43 -46t16 -65q0 -97 -99 -143q-52 -25 -142 -30q98 -32 131 -81t32 -164q0 -66 14 -84q13 -16 39 -16q14 0 37 6l-5 -20q-43 -13 -72 -13q-77 0 -108 57q-14 24 -19.5 55.5t-7.5 98.5 q-2 58 -8.5 84t-21.5 42q-28 29 -88 29h-36l-71 -333h80l-4 -20h-267zM258 373h39q120 0 157 40q18 20 31.5 65.5t13.5 87.5q0 51 -34 71q-19 10 -69 10h-80z" />
<glyph unicode="S" horiz-adv-x="508" d="M6 0l46 216h20q-1 -11 -1 -24q0 -70 41 -119q23 -28 60.5 -45.5t72.5 -17.5q62 0 108.5 40.5t46.5 93.5q0 47 -38 83q-28 27 -98 70q-63 38 -91 62q-55 49 -55 123q0 86 56 142.5t141 56.5q82 0 142 -61l38 47h20l-40 -187h-20q-1 51 -7 77t-23 47q-41 54 -112 54 q-55 0 -95.5 -34t-40.5 -81q0 -39 37 -68q19 -15 83 -51q78 -45 106 -68q64 -53 64 -136q0 -96 -66 -164.5t-158 -68.5q-90 0 -164 67l-53 -54h-20z" />
<glyph unicode="T" horiz-adv-x="551" d="M100 0l4 20h80l133 627h-19q-59 0 -90.5 -12t-60.5 -45q-37 -44 -62 -127h-20l43 204h531l-43 -204h-20q5 35 5 60q0 70 -35 100q-28 24 -103 24h-19l-133 -627h80l-5 -20h-266z" />
<glyph unicode="U" horiz-adv-x="630" d="M623 647l-81 -380q-20 -92 -33 -133.5t-32 -68.5q-54 -78 -172 -78q-95 0 -150 47t-55 127q0 33 17 115l78 371h-80l5 20h266l-4 -20h-80l-84 -396q-17 -82 -17 -119q0 -56 34 -89t92 -33q92 0 138 79q25 43 54 178l80 380h-80l5 20h183l-4 -20h-80z" />
<glyph unicode="V" horiz-adv-x="598" d="M138 0l57 647h-88l4 20h272l-4 -20h-78l-48 -498l378 498h-102l4 20h190l-5 -20h-61l-494 -647h-25z" />
<glyph unicode="W" horiz-adv-x="815" d="M123 0l61 647h-73l4 20h612l-4 -20h-64l-147 -194l-27 -295l372 489h-89l4 20h172l-5 -20h-54l-492 -647h-22l32 338l-257 -338h-23zM515 495l117 152h-102zM237 158l169 223l26 266h-148z" />
<glyph unicode="X" horiz-adv-x="644" d="M-7 0l4 20h76l233 292l-117 335h-81l4 20h280l-4 -20h-89l83 -238l190 238h-109l5 20h215l-4 -20h-77l-211 -264l126 -363h84l-5 -20h-283l5 20h88l-92 264l-211 -264h107l-5 -20h-212z" />
<glyph unicode="Y" horiz-adv-x="596" d="M155 0l4 20h80l61 286l-127 341h-79l4 20h278l-4 -20h-86l111 -307l202 307h-91l4 20h195l-4 -20h-76l-219 -334l-62 -293h80l-5 -20h-266z" />
<glyph unicode="Z" horiz-adv-x="526" d="M-9 0v27l463 620h-129q-57 0 -85 -8.5t-50 -33.5q-34 -38 -60 -114h-20l37 176h438l-5 -20l-465 -627h132q72 0 104.5 9.5t60.5 38.5q39 42 75 140h20l-44 -208h-472z" />
<glyph unicode="[" horiz-adv-x="332" d="M8 -187l182 854h182l-5 -20h-85l-173 -814h85l-4 -20h-182z" />
<glyph unicode="\" horiz-adv-x="433" d="M339 -187l-201 854h56l199 -854h-54z" />
<glyph unicode="]" horiz-adv-x="332" d="M-27 -167h86l173 814h-86l4 20h183l-182 -854h-182z" />
<glyph unicode="^" d="M1 284l280 416h7l265 -416h-44l-192 296l-198 -296h-118z" />
<glyph unicode="_" d="M0 -89h500v-51h-500v51z" />
<glyph unicode="`" d="M337 463l-140 132q-6 6 -6 10q0 8 13 8h69l75 -141z" />
<glyph unicode="a" horiz-adv-x="485" d="M473 135l14 -8q-36 -71 -61 -98q-39 -39 -79 -39q-28 0 -44.5 20t-19.5 57q-53 -77 -119 -77q-56 0 -93.5 44t-37.5 110q0 97 68 178t149 81q64 0 89 -63l12 53h87l-60 -249q-19 -81 -19 -98q0 -23 19 -23q39 0 95 112zM117 88q0 -35 16.5 -56t43.5 -21q61 0 96 82 q19 47 35.5 112.5t16.5 93.5q0 38 -16.5 60.5t-44.5 22.5q-44 0 -77 -53q-28 -45 -49 -118t-21 -123z" />
<glyph unicode="b" horiz-adv-x="455" d="M265 667l-78 -326q44 62 106 62q59 0 98 -42.5t39 -106.5q0 -101 -75.5 -182.5t-168.5 -81.5q-60 0 -95.5 34t-35.5 92q0 36 22 128l97 403h-80l5 20h166zM131 81q0 -31 18 -51.5t45 -20.5q69 0 104 96q19 51 33 112t14 94q0 32 -17 52.5t-43 20.5q-24 0 -49 -17.5 t-39 -44.5q-22 -41 -44 -121t-22 -120z" />
<glyph unicode="c" horiz-adv-x="390" d="M351 114l13 -12q-80 -112 -174 -112q-66 0 -110.5 48.5t-44.5 120.5q0 96 73.5 170t169.5 74q44 0 73 -22t29 -55q0 -20 -14.5 -35t-33.5 -15q-16 0 -26.5 10t-10.5 24q0 21 27 37q7 6 7 10q0 11 -14 19.5t-33 8.5q-56 0 -99 -65q-23 -35 -40 -97.5t-17 -114.5 q0 -99 77 -99q38 0 73 25t75 80z" />
<glyph unicode="d" horiz-adv-x="495" d="M480 136l14 -8q-31 -63 -56 -91q-42 -47 -86 -47q-58 0 -63 76q-54 -76 -122 -76q-55 0 -92 44t-37 109q0 98 69.5 179t152.5 81q60 0 86 -61l73 305h-87l5 20h173l-135 -561q-9 -37 -9 -60t20 -23q38 0 94 113zM122 90q0 -37 16.5 -59t43.5 -22q28 0 57.5 25t43.5 60 q15 39 33 112.5t18 97.5q0 35 -16.5 57.5t-43.5 22.5t-53.5 -22t-42.5 -59q-23 -50 -39.5 -113t-16.5 -100z" />
<glyph unicode="e" horiz-adv-x="405" d="M349 103l12 -11q-82 -102 -172 -102q-66 0 -109.5 48t-43.5 120q0 100 75.5 172.5t178.5 72.5q49 0 82 -25.5t33 -63.5q0 -60 -75 -97t-197 -37q-5 -43 -5 -73q0 -97 75 -97q63 0 146 93zM136 195h9q74 0 133 44.5t59 95.5q0 22 -15.5 36t-39.5 14q-50 0 -90.5 -52.5 t-55.5 -137.5z" />
<glyph unicode="f" horiz-adv-x="284" d="M30 -49l102 422h-88l5 20h88q29 120 77 190q66 94 151 94q31 0 50 -14.5t19 -38.5q0 -19 -13.5 -32t-32.5 -13q-15 0 -25 10t-10 24q0 16 17 27q7 4 7 10q0 10 -13 10q-24 0 -45 -19q-27 -25 -44 -65.5t-38 -126.5l-14 -56h92l-5 -20h-92l-74 -312q-22 -94 -40 -141.5 t-47 -93.5q-28 -44 -66 -68.5t-78 -24.5q-32 0 -52.5 15t-20.5 37q0 17 10.5 28t26.5 11q14 0 22.5 -8.5t8.5 -21.5q0 -11 -8 -23q-5 -5 -5 -9q0 -12 25 -12q26 0 47 23q17 19 29 51.5t34 126.5z" />
<glyph unicode="g" horiz-adv-x="440" d="M135 55h44q108 0 142 -17q58 -31 58 -111q0 -88 -65 -143.5t-168 -55.5q-82 0 -133.5 33.5t-51.5 86.5q0 43 34 76.5t92 47.5q-79 15 -79 80q0 70 95 118q-32 37 -32 81q0 65 49 108.5t123 43.5q94 0 125 -80q16 94 65 94q15 0 26.5 -11t11.5 -26t-9.5 -25.5t-23.5 -10.5 q-20 0 -29 19q-3 8 -8 8q-7 0 -11 -13t-8 -52q-6 -54 -21 -87q-20 -43 -59.5 -67t-88.5 -24q-54 0 -96 29q-56 -22 -56 -62q0 -22 17 -31t57 -9zM206 144q46 0 74 56q28 58 28 112q0 35 -15.5 54t-43.5 19q-39 0 -67 -40q-14 -21 -24.5 -62.5t-10.5 -72.5q0 -29 16.5 -47.5 t42.5 -18.5zM81 -55q-55 -32 -55 -95q0 -45 36 -72t96 -27q77 0 134.5 43t57.5 100q0 40 -35.5 55t-133.5 15q-70 0 -100 -19z" />
<glyph unicode="h" horiz-adv-x="503" d="M29 0l155 647h-80l5 20h167l-90 -376q90 112 178 112q34 0 56 -18t22 -46q0 -16 -11 -63l-45 -187q-8 -32 -8 -44q0 -24 18 -24q19 0 45 30t49 79l16 -6q-65 -134 -145 -134q-29 0 -48 15.5t-19 40.5q0 19 14 78l45 188q5 23 5 29q0 13 -9 21t-23 8q-43 0 -94 -51 q-29 -28 -45 -58t-28 -80l-43 -181h-87z" />
<glyph unicode="i" horiz-adv-x="257" d="M193 542q-20 0 -34 14t-14 35q0 20 14.5 34.5t35.5 14.5q20 0 34 -14.5t14 -34.5t-14.5 -34.5t-35.5 -14.5zM241 130l17 -7q-31 -69 -64 -98q-40 -35 -82 -35q-29 0 -48 17.5t-19 44.5q0 14 12 63l62 258h-79l5 20h165l-75 -312q-6 -26 -6 -37q0 -24 20 -24q19 0 50 34 q18 20 42 76z" />
<glyph unicode="j" horiz-adv-x="229" d="M199 542q-20 0 -34 14t-14 35q0 20 14.5 34.5t35.5 14.5q20 0 34 -14.5t14 -34.5t-14.5 -34.5t-35.5 -14.5zM125 0q-19 -78 -34 -118.5t-38 -75.5q-22 -34 -52 -53.5t-60 -19.5q-31 0 -52 16.5t-21 39.5q0 17 11.5 29t27.5 12q15 0 24 -9t9 -24q0 -11 -6 -24 q-3 -7 -3 -10q0 -13 16 -13q17 0 29 20t24 71l128 532h-82l5 20h168z" />
<glyph unicode="k" horiz-adv-x="478" d="M29 0l155 647h-80l5 20h167l-103 -429q34 13 62 13h11q33 34 58 79q22 40 42.5 56.5t48.5 16.5t48 -17.5t20 -41.5q0 -18 -12.5 -30.5t-30.5 -12.5q-14 0 -24.5 9.5t-10.5 22.5q0 18 18 31q4 4 4 9q0 12 -15 12q-17 0 -31 -13.5t-35 -48.5q-30 -52 -53 -72q84 -21 84 -94 q0 -25 -9 -90q-2 -18 -2 -21q0 -21 16 -21q17 0 40 31t42 80l16 -7q-53 -139 -136 -139q-27 0 -45.5 18t-18.5 45q0 22 24 126q3 13 3 25q0 25 -29 34q-37 -27 -75 -27q-9 0 -16 2l-51 -213h-87z" />
<glyph unicode="l" horiz-adv-x="257" d="M239 133l16 -8q-34 -71 -69.5 -103t-79.5 -32q-28 0 -45 17t-17 44q0 25 22 118l114 478h-80l5 20h167l-141 -587q-7 -29 -7 -37q0 -9 6 -15t16 -6q37 0 93 111z" />
<glyph unicode="m" horiz-adv-x="714" d="M39 0l90 373h-80l5 20h166l-25 -104q68 114 152 114q36 0 58 -20t22 -53q0 -17 -6 -41q67 114 151 114q35 0 56.5 -20t21.5 -52q0 -18 -11 -67l-32 -136q-17 -74 -17 -88q0 -17 17 -17q45 0 97 114l16 -9q-62 -138 -153 -138q-27 0 -44 17.5t-17 44.5q0 19 16 85l32 134 q14 60 14 71q0 29 -33 29q-30 0 -68 -43q-49 -55 -79 -175l-37 -153h-87l71 295q8 34 8 47t-8.5 21t-22.5 8q-35 0 -75 -48q-49 -61 -73 -163l-38 -160h-87z" />
<glyph unicode="n" horiz-adv-x="499" d="M39 0l90 373h-80l5 20h166l-25 -104q74 114 164 114q34 0 56.5 -18.5t22.5 -46.5q0 -21 -7 -49l-45 -188q-12 -51 -12 -56q0 -22 19 -22q38 0 97 112l15 -8q-69 -137 -148 -137q-30 0 -48 17t-18 46q0 17 11 61l44 184q7 29 7 36q0 17 -9.5 27t-25.5 10q-39 0 -83 -54 q-48 -61 -73 -166l-36 -151h-87z" />
<glyph unicode="o" horiz-adv-x="448" d="M36 163q0 89 72 164.5t158 75.5q65 0 109.5 -49.5t44.5 -121.5q0 -90 -71 -166t-154 -76q-66 0 -112.5 50.5t-46.5 122.5zM124 91q0 -38 18.5 -61t49.5 -23q62 0 93 80q18 47 32 110.5t14 100.5q0 88 -63 88q-51 0 -84 -55q-24 -41 -42 -113t-18 -127z" />
<glyph unicode="p" horiz-adv-x="477" d="M138 52l-73 -299h87l-5 -20h-231l5 20h58l149 620h-80l5 20h167l-17 -71q50 81 119 81q54 0 92 -47t38 -114q0 -96 -69.5 -174t-155.5 -78q-62 0 -89 62zM151 95q0 -39 19 -62.5t50 -23.5q29 0 55 22.5t43 62.5q19 44 34.5 109.5t15.5 103.5q0 74 -60 74q-25 0 -50.5 -20 t-42.5 -52q-26 -48 -45 -111.5t-19 -102.5z" />
<glyph unicode="q" horiz-adv-x="473" d="M224 -247l73 306q-52 -69 -126 -69q-57 0 -97.5 45t-40.5 109q0 98 69.5 178.5t153.5 80.5q76 0 106 -76l16 66h86l-153 -640h72l-5 -20h-224l5 20h65zM116 90q0 -37 18.5 -59t50.5 -22q26 0 55 18.5t46 44.5q24 40 42 104t18 110q0 44 -19.5 69.5t-53.5 25.5 q-54 0 -93 -68q-26 -47 -45 -112.5t-19 -110.5z" />
<glyph unicode="r" horiz-adv-x="340" d="M39 0l90 373h-80l5 20h166l-25 -107q63 117 127 117q20 0 33 -11.5t13 -29.5q0 -19 -12.5 -31.5t-29.5 -12.5q-26 0 -42 29q-5 9 -11 9q-9 0 -29 -25q-57 -75 -86 -196l-32 -135h-87z" />
<glyph unicode="s" horiz-adv-x="329" d="M16 72q0 17 10 28.5t26 11.5q15 0 25 -10t10 -25q0 -18 -15 -37q-5 -4 -5 -8q0 -9 17.5 -15.5t42.5 -6.5q40 0 67.5 20t27.5 50t-48 67q-65 50 -88 78.5t-23 59.5q0 47 41.5 82.5t96.5 35.5q40 0 68 -19t28 -46q0 -16 -10 -26t-26 -10q-13 0 -22 8.5t-9 21.5q0 9 11 25 q4 4 4 10q0 8 -12 13t-31 5q-35 0 -56 -15t-21 -40q0 -20 13 -36t53 -44q55 -39 75 -65t20 -61q0 -55 -45.5 -94.5t-109.5 -39.5q-47 0 -81 24t-34 58z" />
<glyph unicode="t" horiz-adv-x="274" d="M244 136l16 -9q-67 -137 -148 -137q-29 0 -47.5 17.5t-18.5 44.5q0 16 12 68l61 253h-59l5 20q53 19 89 50t70 86h19l-33 -136h75l-4 -20h-76l-68 -284q-9 -41 -9 -50q0 -18 17 -18q20 0 46.5 30.5t52.5 84.5z" />
<glyph unicode="u" horiz-adv-x="491" d="M477 137l15 -7q-35 -68 -63 -97q-41 -43 -84 -43q-29 0 -46.5 19t-17.5 50q0 15 5 40q-69 -109 -155 -109q-37 0 -60 21t-23 54q0 16 24 117l46 191h-80l5 20h164l-50 -211q-26 -112 -26 -126q0 -15 9.5 -25t23.5 -10q22 0 50.5 22t50.5 57t33 66.5t31 113.5l27 113h87 l-66 -272q-14 -60 -14 -78q0 -20 15 -20q40 0 99 114z" />
<glyph unicode="v" horiz-adv-x="420" d="M213 282l-31 -132q-16 -65 -16 -90q0 -19 11 -30.5t30 -11.5q28 0 60.5 26t61.5 71q25 40 43 94t18 88q0 17 -17 18q-47 6 -47 46q0 18 11.5 30t28.5 12q22 0 35.5 -20t13.5 -54q0 -62 -30.5 -139.5t-74.5 -128.5q-61 -71 -133 -71q-41 0 -67.5 23.5t-26.5 60.5 q0 27 18 101l33 137q8 35 8 42q0 18 -17 18q-21 0 -50 -37q-16 -21 -41 -76l-16 9q34 69 62 96q41 39 84 39q26 0 43.5 -14.5t17.5 -36.5q0 -20 -12 -70z" />
<glyph unicode="w" horiz-adv-x="655" d="M395 393h85q-40 -174 -48.5 -219t-8.5 -88q0 -68 42 -68q53 0 111 115q49 98 49 165q0 14 -4 19t-17 6q-17 1 -27.5 11.5t-10.5 26.5q0 17 12 29.5t28 12.5q42 0 42 -69q0 -62 -23.5 -134t-62.5 -128q-58 -82 -123 -82q-43 0 -67 33t-24 91q0 40 16 120 q-55 -130 -104 -187t-106 -57q-35 0 -56 18.5t-21 50.5q0 20 4 36l44 183l7 28q8 32 8 48q0 17 -16 17q-22 0 -46 -29t-46 -81l-14 8q29 70 61.5 102t74.5 32q29 0 47.5 -17t18.5 -45q0 -17 -13 -72l-42 -178q-10 -40 -10 -50q0 -25 27 -25q50 0 116 117t97 260z" />
<glyph unicode="x" horiz-adv-x="432" d="M404 135l15 -9q-65 -136 -140 -136q-21 0 -39 13.5t-27 36.5q-12 30 -28 110q-80 -103 -97 -121q-38 -39 -66 -39q-17 0 -27.5 10t-10.5 27q0 16 11.5 28.5t26.5 12.5q20 0 32 -22q4 -7 9 -7q13 0 117 136q-1 5 -2 9.5t-1.5 7t-0.5 3.5q-10 50 -26 128q-9 37 -22 37 q-33 0 -78 -106l-17 7q65 142 134 142q31 0 47 -22q9 -13 13 -26t16 -71l5 -24q45 62 89 112q28 31 55 31q16 0 26 -10t10 -26q0 -17 -11 -28t-28 -11q-15 0 -30 16q-6 6 -11 6q-4 0 -7.5 -3.5t-20.5 -24.5q-50 -60 -67 -87q11 -66 34 -171q7 -39 26 -39q18 0 43 30t48 80z " />
<glyph unicode="y" horiz-adv-x="426" d="M269 116l30 78q56 148 74 178.5t47 30.5q19 0 30.5 -11.5t11.5 -29.5q0 -16 -10.5 -27t-26.5 -11q-15 0 -28 13q-4 5 -9 5q-7 0 -10.5 -6.5t-17.5 -45.5q-106 -290 -180 -403q-46 -71 -101 -112.5t-102 -41.5q-24 0 -40.5 13t-16.5 32q0 16 12.5 27t30.5 11q15 0 25 -8.5 t10 -21.5q0 -4 -2 -14v-3q0 -9 12 -9q18 0 52 25.5t63 60.5q75 88 75 148q0 27 -33 142q-54 192 -59 203q-7 19 -20 19t-28.5 -22t-41.5 -77l-15 7q31 72 60.5 104.5t64.5 32.5q28 0 45 -20q15 -19 34 -91l25 -90l30 -110z" />
<glyph unicode="z" horiz-adv-x="383" d="M40 7v-2q0 -18 -16 -18q-6 0 -10.5 4.5t-4.5 10.5q0 13 14 29.5t81 86.5l204 214q-98 -29 -170 -29q-24 0 -52 4l-28 -64l-18 7l65 146q80 -29 172 -29q36 0 68 2q-1 16 5 27t16 11q12 0 12 -15q0 -16 -34 -51l-248 -255q20 3 30 3q45 0 119 -28q36 -14 52 -14 q19 0 32 12t13 29q0 11 -3 13.5t-15 2.5q-13 0 -22 8t-9 20q0 13 8.5 21.5t21.5 8.5q17 0 27.5 -15t10.5 -38q0 -46 -35.5 -80.5t-83.5 -34.5q-46 0 -121 24q-52 17 -64 17q-18 0 -18 -20q0 -5 1 -8z" />
<glyph unicode="{" horiz-adv-x="332" d="M54 -12l30 143q12 59 12 73q0 39 -47 42l4 17q34 1 52 24t29 78l30 141q14 67 29.5 95.5t45.5 47.5q22 10 41.5 12.5t107.5 5.5l-4 -20q-56 -4 -80.5 -29t-38.5 -90l-32 -148q-13 -61 -35 -87.5t-69 -36.5l-1 -3q59 -11 59 -68q0 -16 -8 -58l-34 -160q-9 -42 -9 -68 q0 -31 17 -46t58 -20l-4 -19q-98 0 -132 15t-34 64q0 27 13 95z" />
<glyph unicode="|" d="M245 -167v834h65v-834h-65z" />
<glyph unicode="}" horiz-adv-x="332" d="M86 -33l34 160q13 62 36 90t69 36v3q-60 13 -60 68q0 20 8 56l32 148q7 35 7 52q0 31 -17.5 46.5t-58.5 20.5l4 20q93 -3 125 -13q41 -14 41 -74q0 -29 -10 -74l-30 -141q-8 -37 -8 -55q0 -23 10.5 -34.5t35.5 -12.5l-4 -17q-34 -1 -52 -22t-27 -70l-4 -23l-31 -143 q-13 -61 -25 -92t-38 -51.5t-61.5 -25.5t-102.5 -5l4 19q57 4 82 31.5t41 102.5z" />
<glyph unicode="~" horiz-adv-x="667" d="M170 611l-16 10q58 101 136 101q26 0 88 -21q53 -19 80 -19q51 0 93 52l16 -11q-24 -44 -61 -71.5t-74 -27.5q-19 0 -89 23q-56 19 -86 19q-23 0 -39.5 -9.5t-38.5 -36.5z" />
<glyph unicode="&#xa1;" horiz-adv-x="281" d="M177 290q-25 0 -42.5 18t-17.5 43q0 23 18 41t41 18q25 0 43 -17.5t18 -42.5t-17.5 -42.5t-42.5 -17.5zM136 191h24q-28 -177 -46 -381q-4 -46 -19 -66.5t-44 -20.5q-22 0 -38 13.5t-16 32.5q0 17 30 99q13 37 22 61q40 113 87 262z" />
<glyph unicode="&#xa2;" d="M216 41l18 82q-62 14 -97.5 59t-35.5 112q0 91 63 159t158 80l15 72h30l-16 -72q42 -4 67 -25.5t25 -52.5q0 -20 -14 -34.5t-33 -14.5q-16 0 -27.5 10t-11.5 24q0 22 25 35q8 4 8 10q0 10 -13 18.5t-30 10.5l-80 -373h5q65 0 144 104l15 -11q-75 -110 -168 -111l-17 -82 h-30zM239 147l79 367q-37 -12 -67 -55q-25 -34 -42 -97t-17 -118q0 -77 47 -97z" />
<glyph unicode="&#xa3;" horiz-adv-x="533" d="M487 174l17 -8q-37 -78 -87.5 -127t-94.5 -49q-25 0 -64.5 20.5t-76.5 52.5q-58 -64 -124 -64q-33 0 -55 20t-22 49q0 36 31 62.5t73 26.5q52 0 111 -26q18 41 18 74q0 39 -13 100h-108l5 28h99q-14 72 -14 106q0 33 13.5 71.5t33.5 65.5q63 82 173 82q71 0 119 -38.5 t48 -95.5q0 -33 -18 -56t-43 -23q-20 0 -35 15.5t-15 34.5q0 22 15 35q15 12 25 12l27 -2q9 0 9 16q0 30 -38 55t-84 25q-31 0 -57 -14t-39 -37q-21 -37 -21 -115q0 -9 2 -47q2 -42 2 -43q0 -13 -2 -47h145l-6 -28h-142q-19 -99 -75 -182q20 -7 21 -8q19 -7 57 -23 q27 -11 56 -11q72 0 134 93zM59 20q50 0 103 57q-70 51 -100 51q-23 0 -40.5 -17t-17.5 -40q0 -21 16 -36t39 -15z" />
<glyph unicode="&#xa4;" d="M80 106l-24 24l66 66q-47 60 -47 131t48 130l-67 66l24 24l66 -66q59 47 130 47q72 0 131 -47l66 66l24 -24l-67 -66q48 -59 48 -130q0 -74 -48 -131l67 -66l-24 -24l-66 67q-57 -48 -131 -48q-73 0 -130 48zM274 191q58 0 98 39t40 95q0 57 -39.5 97t-96.5 40 q-56 0 -95.5 -40t-39.5 -96q0 -55 39.5 -95t93.5 -40z" />
<glyph unicode="&#xa5;" d="M82 0l4 20h82l60 284h-124l4 20h116l-28 109h-105l4 20h96l-46 174h-45l4 20h227l-5 -20h-74l71 -284l178 284h-84l4 20h171l-4 -20h-61l-111 -174h116l-4 -20h-125l-70 -109h131l-4 -20h-138l-61 -284h82l-4 -20h-257z" />
<glyph unicode="&#xa6;" d="M245 327v340h65v-340h-65zM245 153h65v-320h-65v320z" />
<glyph unicode="&#xa7;" d="M18 -63q0 31 17 50.5t43 19.5q18 0 30 -13t12 -32q0 -23 -27 -45q-19 -17 -19 -29q0 -27 30.5 -46t73.5 -19q55 0 90 29t35 74q0 29 -16 50.5t-58 49.5q-97 65 -126 87q-35 28 -49 55t-14 64q0 118 138 171q-35 50 -35 101q0 75 52.5 124t132.5 49q68 0 113.5 -38 t45.5 -95q0 -28 -16 -47t-40 -19q-19 0 -32 12t-13 30q0 21 23 45q18 19 18 35q0 24 -27.5 41.5t-64.5 17.5q-51 0 -85.5 -30t-34.5 -76q0 -38 22.5 -65.5t91.5 -74.5q68 -46 97 -75q47 -46 47 -105q0 -70 -52 -122q-27 -27 -81 -47q24 -39 24 -86q0 -76 -51 -125.5 t-131 -49.5q-70 0 -117 38.5t-47 95.5zM162 206q18 -14 107 -76q28 -19 57 -48q43 10 66 34.5t23 57.5q0 40 -46 78q-14 12 -109 78q-39 27 -67 56q-42 -11 -66 -35t-24 -55q0 -41 59 -90z" />
<glyph unicode="&#xa8;" d="M414 490q-20 0 -35 14.5t-15 35.5t15 35.5t35 14.5q21 0 35.5 -15t14.5 -35t-15 -35t-35 -15zM237 490q-20 0 -35 14.5t-15 35.5t15 35.5t35 14.5q21 0 35.5 -15t14.5 -35t-15 -35t-35 -15z" />
<glyph unicode="&#xa9;" horiz-adv-x="777" d="M69 333q0 142 101.5 243t244.5 101q145 0 246 -101t101 -245q0 -142 -102.5 -241.5t-249.5 -99.5q-139 0 -240 101.5t-101 241.5zM109 333q0 -126 89.5 -218t212.5 -92q129 0 220 90t91 218q0 130 -89.5 221.5t-216.5 91.5t-217 -91t-90 -220zM552 418h-15 q-24 91 -109 91q-57 0 -81 -41q-18 -33 -18 -150q0 -102 18 -128q25 -33 77 -33q77 0 113 99h15v-113h-14l-19 26q-49 -32 -99 -32q-71 0 -122.5 57.5t-51.5 137.5q0 81 53 139t127 58q48 0 93 -31l19 25h14v-105z" />
<glyph unicode="&#xaa;" horiz-adv-x="333" d="M352 451l13 -12q-29 -46 -58 -46q-17 0 -30.5 13t-16.5 33q-31 -46 -78 -46q-41 0 -69 32t-28 80q0 66 45.5 119.5t101.5 53.5q39 0 62 -34l6 27h66l-36 -171q-12 -57 -12 -65q0 -14 9 -14q10 0 25 30zM192 414q40 0 60 53q11 29 21 72t10 63q0 25 -11.5 40.5t-29.5 15.5 q-28 0 -49 -34q-17 -29 -29.5 -75.5t-12.5 -81.5q0 -24 11 -38.5t30 -14.5z" />
<glyph unicode="&#xab;" horiz-adv-x="360" d="M154 202l107 93h55l-111 -93l91 -97h-51zM142 105l-92 97l107 93h55l-111 -93l91 -97h-50z" />
<glyph unicode="&#xac;" d="M61 219v48h432v-267h-111v219h-321z" />
<glyph unicode="&#xad;" horiz-adv-x="193" d="M-8 167l14 66h194l-15 -66h-193z" />
<glyph unicode="&#xae;" horiz-adv-x="777" d="M69 333q0 142 101.5 243t244.5 101q145 0 246 -101t101 -245q0 -142 -102.5 -241.5t-249.5 -99.5q-139 0 -240 101.5t-101 241.5zM109 333q0 -126 89.5 -218t212.5 -92q129 0 220 90t91 218q0 130 -89.5 221.5t-216.5 91.5t-217 -91t-90 -220zM243 143v18h50v344h-50v18 h142q59 0 84 -4t46 -16q43 -25 43 -69q0 -70 -101 -90q89 -30 89 -111v-16l-1 -16q-3 -40 24 -40q8 0 26 6l7 -16q-26 -10 -48 -10q-50 0 -73 40q-13 23 -14 75q-2 50 -18.5 65.5t-69.5 15.5h-15v-176h49v-18h-170zM364 356h18q56 0 75 13q26 18 26 61t-26 61q-19 14 -73 14 h-20v-149z" />
<glyph unicode="&#xaf;" d="M188 514l8 34h267l-8 -34h-267z" />
<glyph unicode="&#xb0;" horiz-adv-x="371" d="M257 404q-56 0 -95 39t-39 94q0 54 39 92t95 38q54 0 92.5 -38.5t38.5 -92.5t-39 -93t-92 -39zM256 438q39 0 67.5 28.5t28.5 67.5q0 42 -28 71t-69 29q-39 0 -67.5 -29t-28.5 -69t28.5 -69t68.5 -29z" />
<glyph unicode="&#xb1;" d="M238 130v176h-186v35h186v176h35v-176h186v-35h-186v-176h-35zM52 52v35h407v-35h-407z" />
<glyph unicode="&#xb2;" horiz-adv-x="332" d="M54 259l-1 36l22 19l55 45q145 119 145 206q0 31 -16 48t-44 17q-29 0 -51 -15t-22 -34q0 -9 15 -12q28 -5 28 -29q0 -13 -9.5 -22t-23.5 -9q-18 0 -29.5 14t-11.5 35q0 40 35.5 67.5t87.5 27.5q50 0 81 -24t31 -63q0 -34 -24.5 -66.5t-93.5 -91.5l-117 -95h139 q35 0 46 8t18 40h20l-22 -102h-258z" />
<glyph unicode="&#xb3;" horiz-adv-x="332" d="M150 453h-2q-12 0 -12 12q0 13 18 13q2 0 14 -1q3 -1 10 -1q38 0 64 30.5t26 73.5q0 26 -13 40t-36 14q-18 0 -33.5 -7t-15.5 -15q0 -3 8 -11q7 -7 7 -17q0 -12 -9 -20.5t-22 -8.5t-22 8.5t-9 21.5q0 28 32.5 48t78.5 20q45 0 72.5 -21.5t27.5 -56.5q0 -71 -105 -105 q93 -17 93 -91q0 -51 -49.5 -88.5t-117.5 -37.5q-41 0 -66.5 19t-25.5 50q0 17 11 29.5t26 12.5q13 0 22 -8.5t9 -20.5q0 -24 -28 -33q-6 -1 -6 -5q0 -10 17 -18t39 -8q43 0 70.5 32.5t27.5 84.5q0 71 -63 71q-8 0 -38 -6z" />
<glyph unicode="&#xb4;" d="M285 463l-9 11l118 139h74q12 0 12 -8q0 -5 -6 -10z" />
<glyph unicode="&#xb5;" horiz-adv-x="491" d="M478 137l14 -7q-34 -68 -63 -97q-40 -43 -84 -43q-29 0 -46.5 19t-17.5 50q0 15 5 40q-69 -109 -153 -109q-53 0 -71 37q-10 -96 -22 -221q-6 -73 -53 -73q-19 0 -32 11.5t-13 27.5q0 11 50 152q27 76 45 128q10 28 21 71l60 250h-79l4 20h165l-51 -211 q-26 -105 -26 -126q0 -15 9.5 -25t23.5 -10q23 0 51.5 22.5t50.5 56.5q21 34 31.5 65t31.5 115l28 113h86l-65 -272q-15 -61 -15 -78q0 -20 15 -20q41 0 100 114z" />
<glyph unicode="&#xb6;" d="M74 -167h77l101 475q-60 0 -91 12q-37 15 -57 48t-20 78q0 47 23.5 95t63.5 79q57 47 153 47h240l-5 -20h-66l-173 -814h67l-5 -20h-312zM200 -167h72l173 814h-73z" />
<glyph unicode="&#xb7;" horiz-adv-x="254" d="M127 140q-25 0 -43 17.5t-18 42.5t17.5 42.5t43.5 17.5q24 0 41.5 -17.5t17.5 -42.5t-17.5 -42.5t-41.5 -17.5z" />
<glyph unicode="&#xb8;" d="M255 0l-44 -66q7 1 17 1q31 0 51.5 -14.5t20.5 -37.5q0 -28 -28 -45.5t-74 -17.5q-40 0 -66.5 14.5t-26.5 36.5q0 8 6 14t14 6q18 0 18 -19q0 -4 -1 -10q-1 -2 -1 -6q0 -8 10.5 -13t26.5 -5q23 0 39 14t16 34q0 35 -51 41l52 73h21z" />
<glyph unicode="&#xb9;" horiz-adv-x="332" d="M83 258l4 19h67l68 320q3 13 3 17q0 16 -38 16q-20 0 -37 -1l4 18h22q50 0 124 10l-80 -380h77l-4 -19h-210z" />
<glyph unicode="&#xba;" horiz-adv-x="333" d="M219 393q-49 0 -83 36t-34 88q0 60 49.5 110.5t108.5 50.5q47 0 80 -35.5t33 -87.5q0 -61 -48 -111.5t-106 -50.5zM218 411q39 0 58 51q27 75 27 135q0 63 -43 63q-34 0 -53 -35q-15 -27 -25.5 -72t-10.5 -82q0 -28 12.5 -44t34.5 -16z" />
<glyph unicode="&#xbb;" horiz-adv-x="360" d="M154 105l111 93l-91 97h50l92 -97l-107 -93h-55zM50 105l111 93l-91 97h50l92 -97l-107 -93h-55z" />
<glyph unicode="&#xbc;" horiz-adv-x="803" d="M83 258l4 19h67l68 320q3 13 3 17q0 16 -38 16q-20 0 -37 -1l4 18h22q50 0 124 10l-80 -380h77l-4 -19h-210zM237 0l375 647h32l-375 -647h-32zM475 113v18l225 257h42l-54 -254h52l7 32h21l-22 -101h-21l10 48h-52l-20 -95h55l-4 -18h-171l5 18h54l20 95h-147zM503 134 h124l39 184z" />
<glyph unicode="&#xbd;" horiz-adv-x="803" d="M83 258l4 19h67l68 320q3 13 3 17q0 16 -38 16q-20 0 -37 -1l4 18h22q50 0 124 10l-80 -380h77l-4 -19h-210zM223 0l376 647h32l-376 -647h-32zM471 0l-1 36q121 101 149 130q73 77 73 141q0 30 -16 47t-44 17q-29 0 -51 -15t-22 -34q0 -10 15 -12q28 -5 28 -29 q0 -13 -9.5 -22t-22.5 -9q-19 0 -30.5 14t-11.5 35q0 40 35.5 67.5t87.5 27.5q50 0 81 -24t31 -63q0 -34 -24.5 -66.5t-93.5 -90.5l-117 -96h139q35 0 46 8t18 41h20l-22 -103h-258z" />
<glyph unicode="&#xbe;" horiz-adv-x="803" d="M150 453h-2q-12 0 -12 12q0 13 18 13q2 0 14 -1q3 -1 10 -1q38 0 64 30.5t26 73.5q0 26 -13 40t-36 14q-18 0 -33.5 -7t-15.5 -15q0 -3 8 -11q7 -7 7 -17q0 -12 -9 -20.5t-22 -8.5t-22 8.5t-9 21.5q0 28 32.5 48t78.5 20q45 0 72.5 -21.5t27.5 -56.5q0 -71 -105 -105 q93 -17 93 -91q0 -51 -49.5 -88.5t-117.5 -37.5q-41 0 -66.5 19t-25.5 50q0 17 11 29.5t26 12.5q13 0 22 -8.5t9 -20.5q0 -24 -28 -33q-6 -1 -6 -5q0 -10 17 -18t39 -8q43 0 70.5 32.5t27.5 84.5q0 71 -63 71q-8 0 -38 -6zM233 0l376 647h32l-376 -647h-32zM475 113l-1 18 l226 257h42l-54 -254h51l7 32h22l-22 -101h-21l10 48h-52l-20 -95h55l-4 -18h-171l4 18h55l20 95h-147zM503 134h123l40 184z" />
<glyph unicode="&#xbf;" horiz-adv-x="374" d="M248 290q-25 0 -42.5 17.5t-17.5 43.5q0 24 17.5 41.5t41.5 17.5q25 0 43 -17.5t18 -42.5t-17.5 -42.5t-42.5 -17.5zM219 196h21q-4 -89 -31 -136.5t-97 -89.5q-59 -35 -78 -57q-29 -32 -29 -70q0 -43 34.5 -72.5t84.5 -29.5q37 0 71 20t34 42q0 10 -12 11q-41 5 -41 42 q0 16 12 28t28 12q21 0 35 -17t14 -43q0 -47 -41 -80t-100 -33q-68 0 -111 43t-43 113q0 86 65 145q35 32 111 67q40 18 57 42t16 63z" />
<glyph unicode="&#xc0;" horiz-adv-x="594" d="M363 815q-12 6 -12 13q0 9 12 9h86l94 -106l-9 -11zM8 20l485 647h18l-51 -647h84l-4 -20h-276l5 20h87l17 193h-196l-139 -193h95l-5 -20h-195l4 20h71zM197 233h177l23 268z" />
<glyph unicode="&#xc1;" horiz-adv-x="594" d="M485 720l-6 13l126 104h101q14 0 14 -9q0 -8 -14 -14zM8 20l485 647h18l-51 -647h84l-4 -20h-276l5 20h87l17 193h-196l-139 -193h95l-5 -20h-195l4 20h71zM197 233h177l23 268z" />
<glyph unicode="&#xc2;" horiz-adv-x="594" d="M356 720l-6 12l195 111l108 -112l-9 -11l-116 49zM8 20l485 647h18l-51 -647h84l-4 -20h-276l5 20h87l17 193h-196l-139 -193h95l-5 -20h-195l4 20h71zM197 233h177l23 268z" />
<glyph unicode="&#xc3;" horiz-adv-x="594" d="M378 736l-14 10q46 74 113 74q19 0 48 -11l36 -14q21 -9 41 -9q28 0 57 33l14 -10q-52 -75 -109 -75q-18 0 -45 11l-35 14q-24 10 -46 10q-19 0 -31.5 -7t-28.5 -26zM8 20l485 647h18l-51 -647h84l-4 -20h-276l5 20h87l17 193h-196l-139 -193h95l-5 -20h-195l4 20h71z M197 233h177l23 268z" />
<glyph unicode="&#xc4;" horiz-adv-x="594" d="M613 729q-22 0 -36.5 14.5t-14.5 35.5t14.5 35t36.5 14q20 0 34 -14.5t14 -35.5t-14 -35t-34 -14zM417 729q-22 0 -36.5 14.5t-14.5 35.5t14.5 35t36.5 14q20 0 34 -14.5t14 -35.5t-14 -35t-34 -14zM8 20l485 647h18l-51 -647h84l-4 -20h-276l5 20h87l17 193h-196 l-139 -193h95l-5 -20h-195l4 20h71zM197 233h177l23 268z" />
<glyph unicode="&#xc5;" horiz-adv-x="594" d="M529 707q-32 0 -54 21.5t-22 53.5t22 54.5t54 22.5t53.5 -22.5t21.5 -55.5q0 -31 -22 -52.5t-53 -21.5zM528 735q19 0 32.5 14.5t13.5 33.5t-13.5 33.5t-31.5 14.5q-19 0 -32.5 -14t-13.5 -34q0 -19 13.5 -33.5t31.5 -14.5zM8 20l485 647h18l-51 -647h84l-4 -20h-276 l5 20h87l17 193h-196l-139 -193h95l-5 -20h-195l4 20h71zM197 233h177l23 268z" />
<glyph unicode="&#xc6;" horiz-adv-x="864" d="M2 20l465 627h-88l5 20h510l-35 -168h-20q5 26 5 42q0 58 -34 86q-16 13 -41 16.5t-94 3.5h-78l-62 -292h43q68 0 95 39q15 21 26 77h20l-56 -264h-20q11 48 11 71q0 31 -18.5 44t-62.5 13h-42l-66 -315h76q82 0 124 11t73 41q43 40 69 129h20l-43 -201h-510l4 20h80 l53 251h-195l-186 -251h97l-4 -20h-186l4 20h61zM232 291h183l72 343z" />
<glyph unicode="&#xc7;" horiz-adv-x="587" d="M305 -13l-36 -54q7 1 17 1q31 0 52 -15t21 -38q0 -29 -29 -46.5t-75 -17.5q-41 0 -68 14.5t-27 36.5q0 8 6 14t15 6q18 0 18 -19q0 -4 -1 -10q-1 -2 -1 -6q0 -8 10.5 -13t26.5 -5q24 0 40.5 14t16.5 34q0 36 -52 42l44 62q-98 10 -160.5 82t-62.5 176q0 106 52.5 207.5 t137 164.5t171.5 63q79 0 131 -61l34 48h20l-41 -194h-20q1 15 1 30q0 74 -30 114t-85 40q-107 0 -179 -137q-34 -64 -55.5 -155.5t-21.5 -170.5q0 -86 39 -135t108 -49q63 0 113 42t95 133h20l-39 -185h-20l-25 44q-77 -54 -161 -57z" />
<glyph unicode="&#xc8;" horiz-adv-x="583" d="M467 720l-171 95q-12 6 -12 13q0 9 12 9h86l94 -106zM-8 0l4 20h80l134 627h-80l4 20h480l-36 -168h-20q5 26 5 43q0 57 -34 85q-16 13 -41 16.5t-93 3.5h-79l-62 -292h43q68 0 95 39q15 21 26 77h20l-56 -264h-20q11 48 11 70q0 32 -18.5 45t-62.5 13h-42l-67 -315h76 q82 0 124.5 11t73.5 41q43 42 69 129h20l-43 -201h-511z" />
<glyph unicode="&#xc9;" horiz-adv-x="583" d="M342 720l-6 13l126 104h101q14 0 14 -9q0 -8 -14 -14zM-8 0l4 20h80l134 627h-80l4 20h480l-36 -168h-20q5 26 5 43q0 57 -34 85q-16 13 -41 16.5t-93 3.5h-79l-62 -292h43q68 0 95 39q15 21 26 77h20l-56 -264h-20q11 48 11 70q0 32 -18.5 45t-62.5 13h-42l-67 -315h76 q82 0 124.5 11t73.5 41q43 42 69 129h20l-43 -201h-511z" />
<glyph unicode="&#xca;" horiz-adv-x="583" d="M268 720l-6 12l195 111l108 -112l-9 -11l-116 49zM-8 0l4 20h80l134 627h-80l4 20h480l-36 -168h-20q5 26 5 43q0 57 -34 85q-16 13 -41 16.5t-93 3.5h-79l-62 -292h43q68 0 95 39q15 21 26 77h20l-56 -264h-20q11 48 11 70q0 32 -18.5 45t-62.5 13h-42l-67 -315h76 q82 0 124.5 11t73.5 41q43 42 69 129h20l-43 -201h-511z" />
<glyph unicode="&#xcb;" horiz-adv-x="583" d="M523 729q-22 0 -36.5 14.5t-14.5 35.5t14.5 35t36.5 14q20 0 34 -14.5t14 -35.5t-14 -35t-34 -14zM317 729q-22 0 -36.5 14.5t-14.5 35.5t14.5 35t36.5 14q20 0 34 -14.5t14 -35.5t-14 -35t-34 -14zM-8 0l4 20h80l134 627h-80l4 20h480l-36 -168h-20q5 26 5 43 q0 57 -34 85q-16 13 -41 16.5t-93 3.5h-79l-62 -292h43q68 0 95 39q15 21 26 77h20l-56 -264h-20q11 48 11 70q0 32 -18.5 45t-62.5 13h-42l-67 -315h76q82 0 124.5 11t73.5 41q43 42 69 129h20l-43 -201h-511z" />
<glyph unicode="&#xcc;" horiz-adv-x="337" d="M328 720l-164 95q-12 6 -12 13q0 9 11 9h85l89 -106zM-8 0l4 20h80l134 627h-80l4 20h267l-5 -20h-80l-133 -627h80l-4 -20h-267z" />
<glyph unicode="&#xcd;" horiz-adv-x="337" d="M230 720l-7 13l121 104h99q14 0 14 -9q0 -6 -14 -14zM-8 0l4 20h80l134 627h-80l4 20h267l-5 -20h-80l-133 -627h80l-4 -20h-267z" />
<glyph unicode="&#xce;" horiz-adv-x="337" d="M141 720l-5 12l188 111l101 -112l-9 -11l-109 49zM-8 0l4 20h80l134 627h-80l4 20h267l-5 -20h-80l-133 -627h80l-4 -20h-267z" />
<glyph unicode="&#xcf;" horiz-adv-x="337" d="M375 729q-22 0 -36.5 14.5t-14.5 35.5t14.5 35t36.5 14q20 0 34 -14.5t14 -35.5t-14 -35t-34 -14zM208 729q-22 0 -36.5 14.5t-14.5 35.5t14.5 35t36.5 14q20 0 34 -14.5t14 -35.5t-14 -35t-34 -14zM-8 0l4 20h80l134 627h-80l4 20h267l-5 -20h-80l-133 -627h80l-4 -20 h-267z" />
<glyph unicode="&#xd0;" horiz-adv-x="660" d="M-8 0l4 20h80l68 319h-80l4 20h80l62 288h-80l4 20h215q81 0 124 -10t81 -37q47 -35 73 -93t26 -131q0 -98 -46.5 -194.5t-118.5 -145.5q-60 -42 -137 -51q-38 -5 -124 -5h-235zM183 20h43q73 0 106.5 6.5t61.5 25.5q71 47 114 196q35 120 35 240q0 94 -55 132 q-22 16 -47 21.5t-78 5.5h-47l-61 -288h137l-4 -20h-137z" />
<glyph unicode="&#xd1;" horiz-adv-x="657" d="M313 736l-14 10q46 74 113 74q19 0 48 -11l36 -14q21 -9 41 -9q28 0 57 33l14 -10q-52 -75 -109 -75q-18 0 -45 11l-35 14q-24 10 -46 10q-19 0 -31.5 -7t-28.5 -26zM-12 0l4 20h80l134 627h-80l4 20h199l194 -472l96 452h-80l4 20h184l-5 -20h-80l-137 -647h-16 l-262 639l-131 -619h80l-5 -20h-183z" />
<glyph unicode="&#xd2;" horiz-adv-x="649" d="M497 720l-171 95q-12 6 -12 13q0 9 12 9h86l94 -106zM63 265q0 100 51.5 197t133.5 157.5t167 60.5q100 0 163.5 -78t63.5 -202q0 -75 -30 -151t-78 -133t-111.5 -93t-126.5 -36q-99 0 -166 80t-67 198zM219 38q33 -28 75 -28q46 0 85.5 30t67.5 85q37 73 61 177.5 t24 193.5q0 98 -44 136q-28 25 -71 25q-50 0 -93 -33.5t-71 -95.5q-80 -173 -80 -350q0 -98 46 -140z" />
<glyph unicode="&#xd3;" horiz-adv-x="649" d="M388 720l-6 13l126 104h101q14 0 14 -9q0 -8 -14 -14zM63 265q0 100 51.5 197t133.5 157.5t167 60.5q100 0 163.5 -78t63.5 -202q0 -75 -30 -151t-78 -133t-111.5 -93t-126.5 -36q-99 0 -166 80t-67 198zM219 38q33 -28 75 -28q46 0 85.5 30t67.5 85q37 73 61 177.5 t24 193.5q0 98 -44 136q-28 25 -71 25q-50 0 -93 -33.5t-71 -95.5q-80 -173 -80 -350q0 -98 46 -140z" />
<glyph unicode="&#xd4;" horiz-adv-x="649" d="M297 720l-6 12l195 111l108 -112l-9 -11l-116 49zM63 265q0 100 51.5 197t133.5 157.5t167 60.5q100 0 163.5 -78t63.5 -202q0 -75 -30 -151t-78 -133t-111.5 -93t-126.5 -36q-99 0 -166 80t-67 198zM219 38q33 -28 75 -28q46 0 85.5 30t67.5 85q37 73 61 177.5t24 193.5 q0 98 -44 136q-28 25 -71 25q-50 0 -93 -33.5t-71 -95.5q-80 -173 -80 -350q0 -98 46 -140z" />
<glyph unicode="&#xd5;" horiz-adv-x="649" d="M331 736l-14 10q46 74 113 74q19 0 48 -11l36 -14q21 -9 41 -9q28 0 57 33l14 -10q-52 -75 -109 -75q-18 0 -45 11l-35 14q-24 10 -46 10q-19 0 -31.5 -7t-28.5 -26zM63 265q0 100 51.5 197t133.5 157.5t167 60.5q100 0 163.5 -78t63.5 -202q0 -75 -30 -151t-78 -133 t-111.5 -93t-126.5 -36q-99 0 -166 80t-67 198zM219 38q33 -28 75 -28q46 0 85.5 30t67.5 85q37 73 61 177.5t24 193.5q0 98 -44 136q-28 25 -71 25q-50 0 -93 -33.5t-71 -95.5q-80 -173 -80 -350q0 -98 46 -140z" />
<glyph unicode="&#xd6;" horiz-adv-x="649" d="M553 729q-22 0 -36.5 14.5t-14.5 35.5t14.5 35t36.5 14q20 0 34 -14.5t14 -35.5t-14 -35t-34 -14zM347 729q-22 0 -36.5 14.5t-14.5 35.5t14.5 35t36.5 14q20 0 34 -14.5t14 -35.5t-14 -35t-34 -14zM63 265q0 100 51.5 197t133.5 157.5t167 60.5q100 0 163.5 -78 t63.5 -202q0 -75 -30 -151t-78 -133t-111.5 -93t-126.5 -36q-99 0 -166 80t-67 198zM219 38q33 -28 75 -28q46 0 85.5 30t67.5 85q37 73 61 177.5t24 193.5q0 98 -44 136q-28 25 -71 25q-50 0 -93 -33.5t-71 -95.5q-80 -173 -80 -350q0 -98 46 -140z" />
<glyph unicode="&#xd7;" d="M130 153l-25 25l145 145l-145 146l25 25l145 -146l146 146l25 -25l-146 -146l146 -145l-25 -25l-146 145z" />
<glyph unicode="&#xd8;" horiz-adv-x="649" d="M61 10l58 70q-56 85 -56 185t51.5 197t134.5 157.5t168 60.5q87 0 156 -72l53 62l18 -15l-56 -66q53 -80 53 -185q0 -77 -30 -153.5t-77.5 -134t-111 -93.5t-126.5 -36q-99 0 -162 74l-57 -66zM175 139l351 420q-19 98 -109 98q-103 0 -164 -129q-36 -77 -58 -170.5 t-22 -167.5q0 -5 2 -51zM179 110q11 -48 41 -74t73 -26q114 0 181 179q25 66 41 152.5t16 153.5q0 19 -1 35z" />
<glyph unicode="&#xd9;" horiz-adv-x="630" d="M487 720l-171 95q-12 6 -12 13q0 9 12 9h86l94 -106zM623 647l-81 -380q-20 -92 -33 -133.5t-32 -68.5q-54 -78 -172 -78q-95 0 -150 47t-55 127q0 33 17 115l78 371h-80l5 20h266l-4 -20h-80l-84 -396q-17 -82 -17 -119q0 -56 34 -89t92 -33q92 0 138 79q25 43 54 178 l80 380h-80l5 20h183l-4 -20h-80z" />
<glyph unicode="&#xda;" horiz-adv-x="630" d="M381 720l-6 13l126 104h101q14 0 14 -9q0 -8 -14 -14zM623 647l-81 -380q-20 -92 -33 -133.5t-32 -68.5q-54 -78 -172 -78q-95 0 -150 47t-55 127q0 33 17 115l78 371h-80l5 20h266l-4 -20h-80l-84 -396q-17 -82 -17 -119q0 -56 34 -89t92 -33q92 0 138 79q25 43 54 178 l80 380h-80l5 20h183l-4 -20h-80z" />
<glyph unicode="&#xdb;" horiz-adv-x="630" d="M293 720l-6 12l195 111l108 -112l-9 -11l-116 49zM623 647l-81 -380q-20 -92 -33 -133.5t-32 -68.5q-54 -78 -172 -78q-95 0 -150 47t-55 127q0 33 17 115l78 371h-80l5 20h266l-4 -20h-80l-84 -396q-17 -82 -17 -119q0 -56 34 -89t92 -33q92 0 138 79q25 43 54 178 l80 380h-80l5 20h183l-4 -20h-80z" />
<glyph unicode="&#xdc;" horiz-adv-x="630" d="M543 729q-22 0 -36.5 14.5t-14.5 35.5t14.5 35t36.5 14q20 0 34 -14.5t14 -35.5t-14 -35t-34 -14zM337 729q-22 0 -36.5 14.5t-14.5 35.5t14.5 35t36.5 14q20 0 34 -14.5t14 -35.5t-14 -35t-34 -14zM623 647l-81 -380q-20 -92 -33 -133.5t-32 -68.5q-54 -78 -172 -78 q-95 0 -150 47t-55 127q0 33 17 115l78 371h-80l5 20h266l-4 -20h-80l-84 -396q-17 -82 -17 -119q0 -56 34 -89t92 -33q92 0 138 79q25 43 54 178l80 380h-80l5 20h183l-4 -20h-80z" />
<glyph unicode="&#xdd;" horiz-adv-x="596" d="M368 720l-6 13l126 104h101q14 0 14 -9q0 -8 -14 -14zM155 0l4 20h80l61 286l-127 341h-79l4 20h278l-4 -20h-86l111 -307l202 307h-91l4 20h195l-4 -20h-76l-219 -334l-62 -293h80l-5 -20h-266z" />
<glyph unicode="&#xde;" horiz-adv-x="580" d="M-8 0l4 20h80l134 627h-80l4 20h267l-5 -20h-80l-19 -90h70q81 0 108.5 -4.5t54.5 -21.5q64 -42 64 -123q0 -52 -27 -98t-73 -71q-73 -40 -217 -40q-29 0 -56 1l-38 -180h80l-4 -20h-267zM226 221q21 -2 52 -2q73 0 106 11t53 42q16 26 29.5 84.5t13.5 105.5q0 48 -35 66 q-18 9 -77 9h-75z" />
<glyph unicode="&#xdf;" horiz-adv-x="458" d="M2 -40l80 333q31 129 43.5 168.5t36.5 84.5q33 62 84 96.5t110 34.5q40 0 65.5 -17.5t25.5 -44.5q0 -19 -11.5 -30.5t-29.5 -11.5t-30 10t-12 25q0 12 11 24q9 10 9 15q0 13 -35 13q-51 0 -87 -53q-18 -27 -31.5 -67.5t-40.5 -157.5l-9 -39q50 60 128 60q50 0 83.5 -23.5 t33.5 -59.5q0 -37 -38 -67q-29 -21 -80 -30q56 -8 81 -30.5t25 -65.5q0 -57 -48 -97t-116 -40q-47 0 -79 22t-32 54q0 19 12.5 31.5t31.5 12.5q15 0 24.5 -8.5t9.5 -22.5q0 -18 -18 -30q-14 -10 -14 -16q0 -9 15 -16.5t34 -7.5q40 0 69 40.5t29 97.5q0 35 -20.5 51t-66.5 16 h-31l5 20q12 -1 29 -1q43 0 64 18q33 30 33 74q0 26 -17 43t-44 17q-40 0 -77 -35q-32 -32 -48 -99l-40 -165q-44 -183 -90 -255q-28 -46 -69 -72.5t-82 -26.5q-30 0 -50.5 15.5t-20.5 37.5q0 17 10.5 28t26.5 11q13 0 22 -9t9 -21q0 -10 -8 -22q-5 -6 -5 -10q0 -13 21 -13 q31 0 53 27q18 21 31.5 58.5t34.5 125.5z" />
<glyph unicode="&#xe0;" horiz-adv-x="485" d="M344 463l-140 132q-6 6 -6 10q0 8 13 8h69l75 -141zM473 135l14 -8q-36 -71 -61 -98q-39 -39 -79 -39q-28 0 -44.5 20t-19.5 57q-53 -77 -119 -77q-56 0 -93.5 44t-37.5 110q0 97 68 178t149 81q64 0 89 -63l12 53h87l-60 -249q-19 -81 -19 -98q0 -23 19 -23q39 0 95 112 zM117 88q0 -35 16.5 -56t43.5 -21q61 0 96 82q19 47 35.5 112.5t16.5 93.5q0 38 -16.5 60.5t-44.5 22.5q-44 0 -77 -53q-28 -45 -49 -118t-21 -123z" />
<glyph unicode="&#xe1;" horiz-adv-x="485" d="M265 463l-9 11l118 139h74q12 0 12 -8q0 -5 -6 -10zM473 135l14 -8q-36 -71 -61 -98q-39 -39 -79 -39q-28 0 -44.5 20t-19.5 57q-53 -77 -119 -77q-56 0 -93.5 44t-37.5 110q0 97 68 178t149 81q64 0 89 -63l12 53h87l-60 -249q-19 -81 -19 -98q0 -23 19 -23q39 0 95 112 zM117 88q0 -35 16.5 -56t43.5 -21q61 0 96 82q19 47 35.5 112.5t16.5 93.5q0 38 -16.5 60.5t-44.5 22.5q-44 0 -77 -53q-28 -45 -49 -118t-21 -123z" />
<glyph unicode="&#xe2;" horiz-adv-x="485" d="M190 463l-8 13l189 144l83 -147l-11 -10l-92 72zM473 135l14 -8q-36 -71 -61 -98q-39 -39 -79 -39q-28 0 -44.5 20t-19.5 57q-53 -77 -119 -77q-56 0 -93.5 44t-37.5 110q0 97 68 178t149 81q64 0 89 -63l12 53h87l-60 -249q-19 -81 -19 -98q0 -23 19 -23q39 0 95 112z M117 88q0 -35 16.5 -56t43.5 -21q61 0 96 82q19 47 35.5 112.5t16.5 93.5q0 38 -16.5 60.5t-44.5 22.5q-44 0 -77 -53q-28 -45 -49 -118t-21 -123z" />
<glyph unicode="&#xe3;" horiz-adv-x="485" d="M193 500l-13 11q45 69 110 69q20 0 45 -10l35 -14q21 -8 39 -8q26 0 56 31l14 -11q-52 -69 -105 -69q-17 0 -44 10l-34 13q-22 9 -45 9q-31 0 -58 -31zM473 135l14 -8q-36 -71 -61 -98q-39 -39 -79 -39q-28 0 -44.5 20t-19.5 57q-53 -77 -119 -77q-56 0 -93.5 44 t-37.5 110q0 97 68 178t149 81q64 0 89 -63l12 53h87l-60 -249q-19 -81 -19 -98q0 -23 19 -23q39 0 95 112zM117 88q0 -35 16.5 -56t43.5 -21q61 0 96 82q19 47 35.5 112.5t16.5 93.5q0 38 -16.5 60.5t-44.5 22.5q-44 0 -77 -53q-28 -45 -49 -118t-21 -123z" />
<glyph unicode="&#xe4;" horiz-adv-x="485" d="M412 490q-20 0 -35 14.5t-15 35.5t15 35.5t35 14.5q21 0 35.5 -15t14.5 -35t-15 -35t-35 -15zM235 490q-20 0 -35 14.5t-15 35.5t15 35.5t35 14.5q21 0 35.5 -15t14.5 -35t-15 -35t-35 -15zM473 135l14 -8q-36 -71 -61 -98q-39 -39 -79 -39q-28 0 -44.5 20t-19.5 57 q-53 -77 -119 -77q-56 0 -93.5 44t-37.5 110q0 97 68 178t149 81q64 0 89 -63l12 53h87l-60 -249q-19 -81 -19 -98q0 -23 19 -23q39 0 95 112zM117 88q0 -35 16.5 -56t43.5 -21q61 0 96 82q19 47 35.5 112.5t16.5 93.5q0 38 -16.5 60.5t-44.5 22.5q-44 0 -77 -53 q-28 -45 -49 -118t-21 -123z" />
<glyph unicode="&#xe5;" horiz-adv-x="485" d="M298 463q-32 0 -54 21.5t-22 53.5t22 54.5t54 22.5t53.5 -22.5t21.5 -55.5q0 -31 -22 -52.5t-53 -21.5zM297 491q19 0 32.5 14.5t13.5 33.5t-13.5 33.5t-31.5 14.5q-19 0 -32.5 -14t-13.5 -34q0 -19 13.5 -33.5t31.5 -14.5zM473 135l14 -8q-36 -71 -61 -98 q-39 -39 -79 -39q-28 0 -44.5 20t-19.5 57q-53 -77 -119 -77q-56 0 -93.5 44t-37.5 110q0 97 68 178t149 81q64 0 89 -63l12 53h87l-60 -249q-19 -81 -19 -98q0 -23 19 -23q39 0 95 112zM117 88q0 -35 16.5 -56t43.5 -21q61 0 96 82q19 47 35.5 112.5t16.5 93.5 q0 38 -16.5 60.5t-44.5 22.5q-44 0 -77 -53q-28 -45 -49 -118t-21 -123z" />
<glyph unicode="&#xe6;" horiz-adv-x="685" d="M630 109l14 -10q-80 -109 -174 -109q-99 0 -151 111q-40 -59 -76 -85t-77 -26q-56 0 -94.5 45.5t-38.5 110.5q0 94 69.5 175.5t149.5 81.5q70 0 95 -70l14 60h87l-18 -73q59 83 139 83q43 0 72.5 -25t29.5 -62q0 -59 -69 -96.5t-193 -46.5q-4 -27 -4 -46q0 -54 21 -84 t59 -30q75 0 145 96zM412 188l10 1q77 7 130.5 49.5t53.5 93.5q0 23 -14.5 38t-35.5 15q-29 0 -58 -22.5t-48 -59.5q-24 -45 -38 -115zM120 91q0 -39 15 -60.5t43 -21.5q55 0 91 71q25 49 42.5 110.5t17.5 99.5q0 43 -17.5 68.5t-47.5 25.5q-50 0 -83 -67q-61 -119 -61 -226 z" />
<glyph unicode="&#xe7;" horiz-adv-x="390" d="M200 -10l-37 -56q7 1 17 1q31 0 51.5 -14.5t20.5 -37.5q0 -28 -28 -45.5t-74 -17.5q-40 0 -66.5 14.5t-26.5 36.5q0 8 6 14t14 6q18 0 18 -19q0 -4 -1 -10q-1 -2 -1 -6q0 -8 10.5 -13t26.5 -5q23 0 39 14t16 34q0 35 -51 41l45 63q-65 7 -104.5 53.5t-39.5 115.5 q0 96 73.5 170t169.5 74q44 0 73 -22t29 -55q0 -20 -14.5 -35t-33.5 -15q-16 0 -26.5 10t-10.5 24q0 21 27 37q7 6 7 10q0 11 -14 19.5t-33 8.5q-56 0 -99 -65q-23 -35 -40 -97.5t-17 -114.5q0 -99 77 -99q38 0 73 25t75 80l13 -12q-34 -50 -77 -79.5t-87 -32.5z" />
<glyph unicode="&#xe8;" horiz-adv-x="405" d="M330 463l-140 132q-6 6 -6 10q0 8 13 8h69l75 -141zM349 103l12 -11q-82 -102 -172 -102q-66 0 -109.5 48t-43.5 120q0 100 75.5 172.5t178.5 72.5q49 0 82 -25.5t33 -63.5q0 -60 -75 -97t-197 -37q-5 -43 -5 -73q0 -97 75 -97q63 0 146 93zM136 195h9q74 0 133 44.5 t59 95.5q0 22 -15.5 36t-39.5 14q-50 0 -90.5 -52.5t-55.5 -137.5z" />
<glyph unicode="&#xe9;" horiz-adv-x="405" d="M245 463l-9 11l118 139h74q12 0 12 -8q0 -5 -6 -10zM349 103l12 -11q-82 -102 -172 -102q-66 0 -109.5 48t-43.5 120q0 100 75.5 172.5t178.5 72.5q49 0 82 -25.5t33 -63.5q0 -60 -75 -97t-197 -37q-5 -43 -5 -73q0 -97 75 -97q63 0 146 93zM136 195h9q74 0 133 44.5 t59 95.5q0 22 -15.5 36t-39.5 14q-50 0 -90.5 -52.5t-55.5 -137.5z" />
<glyph unicode="&#xea;" horiz-adv-x="405" d="M158 463l-8 13l189 144l83 -147l-11 -10l-92 72zM349 103l12 -11q-82 -102 -172 -102q-66 0 -109.5 48t-43.5 120q0 100 75.5 172.5t178.5 72.5q49 0 82 -25.5t33 -63.5q0 -60 -75 -97t-197 -37q-5 -43 -5 -73q0 -97 75 -97q63 0 146 93zM136 195h9q74 0 133 44.5 t59 95.5q0 22 -15.5 36t-39.5 14q-50 0 -90.5 -52.5t-55.5 -137.5z" />
<glyph unicode="&#xeb;" horiz-adv-x="405" d="M389 490q-20 0 -35 14.5t-15 35.5t15 35.5t35 14.5q21 0 35.5 -15t14.5 -35t-15 -35t-35 -15zM212 490q-20 0 -35 14.5t-15 35.5t15 35.5t35 14.5q21 0 35.5 -15t14.5 -35t-15 -35t-35 -15zM349 103l12 -11q-82 -102 -172 -102q-66 0 -109.5 48t-43.5 120 q0 100 75.5 172.5t178.5 72.5q49 0 82 -25.5t33 -63.5q0 -60 -75 -97t-197 -37q-5 -43 -5 -73q0 -97 75 -97q63 0 146 93zM136 195h9q74 0 133 44.5t59 95.5q0 22 -15.5 36t-39.5 14q-50 0 -90.5 -52.5t-55.5 -137.5z" />
<glyph unicode="&#xec;" horiz-adv-x="257" d="M211 463l-140 132q-6 6 -6 10q0 8 13 8h69l75 -141zM241 130l17 -7q-31 -69 -64 -98q-40 -35 -82 -35q-29 0 -48 17.5t-19 44.5q0 14 12 63l62 258h-79l5 20h165l-75 -312q-6 -26 -6 -37q0 -24 20 -24q19 0 50 34q18 20 42 76z" />
<glyph unicode="&#xed;" horiz-adv-x="257" d="M131 463l-9 11l118 139h74q12 0 12 -8q0 -5 -6 -10zM241 130l17 -7q-31 -69 -64 -98q-40 -35 -82 -35q-29 0 -48 17.5t-19 44.5q0 14 12 63l62 258h-79l5 20h165l-75 -312q-6 -26 -6 -37q0 -24 20 -24q19 0 50 34q18 20 42 76z" />
<glyph unicode="&#xee;" horiz-adv-x="257" d="M64 463l-9 13l173 144l66 -147l-11 -10l-76 72zM241 130l17 -7q-31 -69 -64 -98q-40 -35 -82 -35q-29 0 -48 17.5t-19 44.5q0 14 12 63l62 258h-79l5 20h165l-75 -312q-6 -26 -6 -37q0 -24 20 -24q19 0 50 34q18 20 42 76z" />
<glyph unicode="&#xef;" horiz-adv-x="257" d="M261 490q-20 0 -35 14.5t-15 35.5t15 35.5t35 14.5q21 0 35.5 -15t14.5 -35t-15 -35t-35 -15zM114 490q-20 0 -35 14.5t-15 35.5t15 35.5t35 14.5q21 0 35.5 -15t14.5 -35t-15 -35t-35 -15zM241 130l17 -7q-31 -69 -64 -98q-40 -35 -82 -35q-29 0 -48 17.5t-19 44.5 q0 14 12 63l62 258h-79l5 20h165l-75 -312q-6 -26 -6 -37q0 -24 20 -24q19 0 50 34q18 20 42 76z" />
<glyph unicode="&#xf0;" horiz-adv-x="448" d="M402 628l-79 -48q53 -80 75.5 -153t22.5 -164q0 -59 -12 -98.5t-41 -78.5q-72 -96 -169 -96q-66 0 -114.5 52t-48.5 123q0 92 70 165t158 73q30 0 67 -20q1 101 -37 179l-81 -50l-10 17l82 51q-38 57 -62 88l16 12q33 -33 73 -85l80 49zM126 98q0 -42 19 -66.5t52 -24.5 q29 0 53 21t38 59q16 43 28.5 105.5t12.5 99.5q0 94 -66 94q-53 0 -83 -55q-23 -41 -38.5 -108.5t-15.5 -124.5z" />
<glyph unicode="&#xf1;" horiz-adv-x="499" d="M190 500l-13 11q45 69 110 69q20 0 45 -10l35 -14q21 -8 39 -8q26 0 56 31l14 -11q-52 -69 -105 -69q-17 0 -44 10l-34 13q-22 9 -45 9q-31 0 -58 -31zM39 0l90 373h-80l5 20h166l-25 -104q74 114 164 114q34 0 56.5 -18.5t22.5 -46.5q0 -21 -7 -49l-45 -188 q-12 -51 -12 -56q0 -22 19 -22q38 0 97 112l15 -8q-69 -137 -148 -137q-30 0 -48 17t-18 46q0 17 11 61l44 184q7 29 7 36q0 17 -9.5 27t-25.5 10q-39 0 -83 -54q-48 -61 -73 -166l-36 -151h-87z" />
<glyph unicode="&#xf2;" horiz-adv-x="448" d="M330 463l-140 132q-6 6 -6 10q0 8 13 8h69l75 -141zM36 163q0 89 72 164.5t158 75.5q65 0 109.5 -49.5t44.5 -121.5q0 -90 -71 -166t-154 -76q-66 0 -112.5 50.5t-46.5 122.5zM124 91q0 -38 18.5 -61t49.5 -23q62 0 93 80q18 47 32 110.5t14 100.5q0 88 -63 88 q-51 0 -84 -55q-24 -41 -42 -113t-18 -127z" />
<glyph unicode="&#xf3;" horiz-adv-x="448" d="M248 463l-9 11l118 139h74q12 0 12 -8q0 -5 -6 -10zM36 163q0 89 72 164.5t158 75.5q65 0 109.5 -49.5t44.5 -121.5q0 -90 -71 -166t-154 -76q-66 0 -112.5 50.5t-46.5 122.5zM124 91q0 -38 18.5 -61t49.5 -23q62 0 93 80q18 47 32 110.5t14 100.5q0 88 -63 88 q-51 0 -84 -55q-24 -41 -42 -113t-18 -127z" />
<glyph unicode="&#xf4;" horiz-adv-x="448" d="M161 463l-8 13l189 144l83 -147l-11 -10l-92 72zM36 163q0 89 72 164.5t158 75.5q65 0 109.5 -49.5t44.5 -121.5q0 -90 -71 -166t-154 -76q-66 0 -112.5 50.5t-46.5 122.5zM124 91q0 -38 18.5 -61t49.5 -23q62 0 93 80q18 47 32 110.5t14 100.5q0 88 -63 88 q-51 0 -84 -55q-24 -41 -42 -113t-18 -127z" />
<glyph unicode="&#xf5;" horiz-adv-x="448" d="M172 500l-13 11q45 69 110 69q20 0 45 -10l35 -14q21 -8 39 -8q26 0 56 31l14 -11q-52 -69 -105 -69q-17 0 -44 10l-34 13q-23 9 -45 9q-31 0 -58 -31zM36 163q0 89 72 164.5t158 75.5q65 0 109.5 -49.5t44.5 -121.5q0 -90 -71 -166t-154 -76q-66 0 -112.5 50.5 t-46.5 122.5zM124 91q0 -38 18.5 -61t49.5 -23q62 0 93 80q18 47 32 110.5t14 100.5q0 88 -63 88q-51 0 -84 -55q-24 -41 -42 -113t-18 -127z" />
<glyph unicode="&#xf6;" horiz-adv-x="448" d="M391 490q-20 0 -35 14.5t-15 35.5t15 35.5t35 14.5q21 0 35.5 -15t14.5 -35t-15 -35t-35 -15zM214 490q-20 0 -35 14.5t-15 35.5t15 35.5t35 14.5q21 0 35.5 -15t14.5 -35t-15 -35t-35 -15zM36 163q0 89 72 164.5t158 75.5q65 0 109.5 -49.5t44.5 -121.5q0 -90 -71 -166 t-154 -76q-66 0 -112.5 50.5t-46.5 122.5zM124 91q0 -38 18.5 -61t49.5 -23q62 0 93 80q18 47 32 110.5t14 100.5q0 88 -63 88q-51 0 -84 -55q-24 -41 -42 -113t-18 -127z" />
<glyph unicode="&#xf7;" d="M276 415q-17 0 -29.5 12.5t-12.5 29.5t12.5 29t29.5 12t29 -12.5t12 -29.5q0 -16 -12.5 -28.5t-28.5 -12.5zM72 306v35h407v-35h-407zM234 190q0 17 12.5 29t29.5 12q16 0 28.5 -12.5t12.5 -28.5q0 -17 -12 -29.5t-29 -12.5t-29.5 12.5t-12.5 29.5z" />
<glyph unicode="&#xf8;" horiz-adv-x="448" d="M38 -7l41 51q-43 49 -43 119q0 89 72.5 164.5t158.5 75.5q47 0 86 -30l39 46l14 -12l-38 -46q52 -52 52 -128q0 -91 -70.5 -167t-154.5 -76q-54 0 -102 41l-40 -50zM124 94l201 251q-14 41 -57 41q-69 0 -109 -110q-32 -91 -35 -182zM126 67q14 -60 66 -60q62 0 93 80 q18 47 32 110.5t14 99.5q0 13 -1 24z" />
<glyph unicode="&#xf9;" horiz-adv-x="491" d="M334 463l-140 132q-6 6 -6 10q0 8 13 8h69l75 -141zM477 137l15 -7q-35 -68 -63 -97q-41 -43 -84 -43q-29 0 -46.5 19t-17.5 50q0 15 5 40q-69 -109 -155 -109q-37 0 -60 21t-23 54q0 16 24 117l46 191h-80l5 20h164l-50 -211q-26 -112 -26 -126q0 -15 9.5 -25t23.5 -10 q22 0 50.5 22t50.5 57t33 66.5t31 113.5l27 113h87l-66 -272q-14 -60 -14 -78q0 -20 15 -20q40 0 99 114z" />
<glyph unicode="&#xfa;" horiz-adv-x="491" d="M244 463l-9 11l118 139h74q12 0 12 -8q0 -5 -6 -10zM477 137l15 -7q-35 -68 -63 -97q-41 -43 -84 -43q-29 0 -46.5 19t-17.5 50q0 15 5 40q-69 -109 -155 -109q-37 0 -60 21t-23 54q0 16 24 117l46 191h-80l5 20h164l-50 -211q-26 -112 -26 -126q0 -15 9.5 -25t23.5 -10 q22 0 50.5 22t50.5 57t33 66.5t31 113.5l27 113h87l-66 -272q-14 -60 -14 -78q0 -20 15 -20q40 0 99 114z" />
<glyph unicode="&#xfb;" horiz-adv-x="491" d="M163 463l-8 13l189 144l83 -147l-11 -10l-92 72zM477 137l15 -7q-35 -68 -63 -97q-41 -43 -84 -43q-29 0 -46.5 19t-17.5 50q0 15 5 40q-69 -109 -155 -109q-37 0 -60 21t-23 54q0 16 24 117l46 191h-80l5 20h164l-50 -211q-26 -112 -26 -126q0 -15 9.5 -25t23.5 -10 q22 0 50.5 22t50.5 57t33 66.5t31 113.5l27 113h87l-66 -272q-14 -60 -14 -78q0 -20 15 -20q40 0 99 114z" />
<glyph unicode="&#xfc;" horiz-adv-x="491" d="M395 490q-20 0 -35 14.5t-15 35.5t15 35.5t35 14.5q21 0 35.5 -15t14.5 -35t-15 -35t-35 -15zM218 490q-20 0 -35 14.5t-15 35.5t15 35.5t35 14.5q21 0 35.5 -15t14.5 -35t-15 -35t-35 -15zM477 137l15 -7q-35 -68 -63 -97q-41 -43 -84 -43q-29 0 -46.5 19t-17.5 50 q0 15 5 40q-69 -109 -155 -109q-37 0 -60 21t-23 54q0 16 24 117l46 191h-80l5 20h164l-50 -211q-26 -112 -26 -126q0 -15 9.5 -25t23.5 -10q22 0 50.5 22t50.5 57t33 66.5t31 113.5l27 113h87l-66 -272q-14 -60 -14 -78q0 -20 15 -20q40 0 99 114z" />
<glyph unicode="&#xfd;" horiz-adv-x="426" d="M231 463l-9 11l118 139h74q12 0 12 -8q0 -5 -6 -10zM269 116l30 78q56 148 74 178.5t47 30.5q19 0 30.5 -11.5t11.5 -29.5q0 -16 -10.5 -27t-26.5 -11q-15 0 -28 13q-4 5 -9 5q-7 0 -10.5 -6.5t-17.5 -45.5q-106 -290 -180 -403q-46 -71 -101 -112.5t-102 -41.5 q-24 0 -40.5 13t-16.5 32q0 16 12.5 27t30.5 11q15 0 25 -8.5t10 -21.5q0 -4 -2 -14v-3q0 -9 12 -9q18 0 52 25.5t63 60.5q75 88 75 148q0 27 -33 142q-54 192 -59 203q-7 19 -20 19t-28.5 -22t-41.5 -77l-15 7q31 72 60.5 104.5t64.5 32.5q28 0 45 -20q15 -19 34 -91 l25 -90l30 -110z" />
<glyph unicode="&#xfe;" horiz-adv-x="493" d="M155 52l-64 -299h87l-5 -20h-231l4 20h58l191 894h-87l4 20h174l-74 -345q50 81 117 81q56 0 95.5 -49t39.5 -118q0 -95 -67 -170.5t-151 -75.5q-61 0 -91 62zM167 100q0 -41 20 -66t52 -25q28 0 53 22.5t42 62.5q17 44 30.5 107t13.5 102q0 78 -62 78q-24 0 -49.5 -20 t-41.5 -52q-24 -45 -41 -107.5t-17 -101.5z" />
<glyph unicode="&#xff;" horiz-adv-x="426" d="M375 490q-20 0 -35 14.5t-15 35.5t15 35.5t35 14.5q21 0 35.5 -15t14.5 -35t-15 -35t-35 -15zM198 490q-20 0 -35 14.5t-15 35.5t15 35.5t35 14.5q21 0 35.5 -15t14.5 -35t-15 -35t-35 -15zM269 116l30 78q56 148 74 178.5t47 30.5q19 0 30.5 -11.5t11.5 -29.5 q0 -16 -10.5 -27t-26.5 -11q-15 0 -28 13q-4 5 -9 5q-7 0 -10.5 -6.5t-17.5 -45.5q-106 -290 -180 -403q-46 -71 -101 -112.5t-102 -41.5q-24 0 -40.5 13t-16.5 32q0 16 12.5 27t30.5 11q15 0 25 -8.5t10 -21.5q0 -4 -2 -14v-3q0 -9 12 -9q18 0 52 25.5t63 60.5 q75 88 75 148q0 27 -33 142q-54 192 -59 203q-7 19 -20 19t-28.5 -22t-41.5 -77l-15 7q31 72 60.5 104.5t64.5 32.5q28 0 45 -20q15 -19 34 -91l25 -90l30 -110z" />
<glyph unicode="&#x152;" horiz-adv-x="965" d="M454 0l13 58q-89 -71 -174 -71q-98 0 -164 79.5t-66 197.5q0 101 51 198t133 157.5t168 60.5q108 0 164 -91l17 78h400l-35 -168h-20q5 26 5 43q0 57 -34 85q-16 13 -41 16.5t-94 3.5h-78l-62 -292h43q66 0 95 39q15 21 26 77h20l-56 -264h-20q11 48 11 70q0 32 -18.5 45 t-63.5 13h-41l-67 -315h76q82 0 124 11t73 41q44 42 69 129h20l-43 -201h-431zM172 183q0 -82 32 -127.5t89 -45.5q49 0 91 34t69 96q34 76 55.5 173.5t21.5 175.5q0 87 -32 127q-33 41 -86 41q-40 0 -79 -27.5t-65 -73.5q-42 -76 -69 -180.5t-27 -192.5z" />
<glyph unicode="&#x153;" horiz-adv-x="680" d="M622 103l14 -11q-84 -102 -172 -102q-75 0 -126 67q-65 -67 -144 -67q-65 0 -111.5 51t-46.5 121q0 89 72 165t156 76q77 0 125 -69q81 69 176 69q48 0 81 -26t33 -63q0 -32 -23 -59t-64 -44q-67 -28 -183 -31q-7 -48 -7 -74q0 -47 19.5 -72t56.5 -25q60 0 144 94z M413 196q41 3 74 13q53 16 89 52.5t36 74.5q0 20 -16 34t-39 14q-99 0 -144 -188zM123 94q0 -39 18.5 -62t49.5 -23q60 0 93 80q20 50 33.5 110t13.5 99q0 41 -16.5 63.5t-46.5 22.5q-65 0 -101 -91q-44 -112 -44 -199z" />
<glyph unicode="&#x178;" horiz-adv-x="596" d="M543 729q-22 0 -36.5 14.5t-14.5 35.5t14.5 35t36.5 14q20 0 34 -14.5t14 -35.5t-14 -35t-34 -14zM337 729q-22 0 -36.5 14.5t-14.5 35.5t14.5 35t36.5 14q20 0 34 -14.5t14 -35.5t-14 -35t-34 -14zM155 0l4 20h80l61 286l-127 341h-79l4 20h278l-4 -20h-86l111 -307 l202 307h-91l4 20h195l-4 -20h-76l-219 -334l-62 -293h80l-5 -20h-266z" />
<glyph unicode="&#x2c6;" d="M192 463l-8 13l189 144l83 -147l-11 -10l-92 72z" />
<glyph unicode="&#x2dc;" d="M190 500l-13 11q45 69 110 69q20 0 45 -10l35 -14q21 -8 39 -8q26 0 56 31l14 -11q-52 -69 -105 -69q-17 0 -44 10l-34 13q-22 9 -45 9q-31 0 -58 -31z" />
<glyph unicode="&#x2000;" horiz-adv-x="429" />
<glyph unicode="&#x2001;" horiz-adv-x="859" />
<glyph unicode="&#x2002;" horiz-adv-x="429" />
<glyph unicode="&#x2003;" horiz-adv-x="859" />
<glyph unicode="&#x2004;" horiz-adv-x="286" />
<glyph unicode="&#x2005;" horiz-adv-x="214" />
<glyph unicode="&#x2006;" horiz-adv-x="143" />
<glyph unicode="&#x2007;" horiz-adv-x="143" />
<glyph unicode="&#x2008;" horiz-adv-x="107" />
<glyph unicode="&#x2009;" horiz-adv-x="171" />
<glyph unicode="&#x200a;" horiz-adv-x="47" />
<glyph unicode="&#x2010;" horiz-adv-x="193" d="M-8 167l14 66h194l-15 -66h-193z" />
<glyph unicode="&#x2011;" horiz-adv-x="193" d="M-8 167l14 66h194l-15 -66h-193z" />
<glyph unicode="&#x2012;" horiz-adv-x="193" d="M-8 167l14 66h194l-15 -66h-193z" />
<glyph unicode="&#x2013;" d="M39 167l14 66h407l-14 -66h-407z" />
<glyph unicode="&#x2014;" horiz-adv-x="547" d="M-8 167l14 66h547l-14 -66h-547z" />
<glyph unicode="&#x2018;" horiz-adv-x="252" d="M263 677l9 -16q-120 -67 -120 -131q0 -14 11 -14q3 0 9 7q14 16 38 16q20 0 34 -15t14 -37q0 -24 -18 -41t-44 -17q-31 0 -53.5 25t-22.5 59q0 95 143 164z" />
<glyph unicode="&#x2019;" horiz-adv-x="252" d="M138 429l-10 16q120 67 120 131q0 14 -11 14q-3 0 -9 -7q-14 -16 -38 -16q-20 0 -34 15t-14 37q0 24 18 41t44 17q31 0 53.5 -25t22.5 -59q0 -95 -142 -164z" />
<glyph unicode="&#x201a;" horiz-adv-x="252" d="M17 -141l-10 15q120 68 120 131q0 14 -11 14q-3 0 -9 -7q-15 -15 -38 -15q-20 0 -34 15t-14 37q0 24 18 41t44 17q31 0 53.5 -25t22.5 -59q0 -95 -142 -164z" />
<glyph unicode="&#x201c;" horiz-adv-x="449" d="M460 677l9 -16q-120 -67 -120 -131q0 -14 11 -14q4 0 9 7q14 16 39 16q20 0 34 -15t14 -37q0 -24 -18 -41t-44 -17q-31 0 -54 25t-23 59q0 95 143 164zM263 677l9 -16q-120 -67 -120 -131q0 -14 11 -14q3 0 9 7q14 16 38 16q20 0 34 -15t14 -37q0 -24 -18 -41t-44 -17 q-31 0 -53.5 25t-22.5 59q0 95 143 164z" />
<glyph unicode="&#x201d;" horiz-adv-x="449" d="M335 429l-10 16q121 67 121 131q0 14 -11 14q-4 0 -9 -7q-14 -16 -39 -16q-20 0 -34 15t-14 37q0 24 18 41t44 17q31 0 54 -25t23 -59q0 -95 -143 -164zM138 429l-10 16q120 67 120 131q0 14 -11 14q-3 0 -9 -7q-14 -16 -38 -16q-20 0 -34 15t-14 37q0 24 18 41t44 17 q31 0 53.5 -25t22.5 -59q0 -95 -142 -164z" />
<glyph unicode="&#x201e;" horiz-adv-x="449" d="M214 -141l-10 15q121 68 121 131q0 14 -11 14q-4 0 -9 -7q-15 -15 -39 -15q-20 0 -34 15t-14 37q0 24 18 41t44 17q31 0 54 -25t23 -59q0 -95 -143 -164zM17 -141l-10 15q120 68 120 131q0 14 -11 14q-3 0 -9 -7q-15 -15 -38 -15q-20 0 -34 15t-14 37q0 24 18 41t44 17 q31 0 53.5 -25t22.5 -59q0 -95 -142 -164z" />
<glyph unicode="&#x2022;" horiz-adv-x="667" d="M335 200q-58 0 -98.5 40.5t-40.5 97.5q0 58 40.5 98.5t99.5 40.5q56 0 96.5 -41t40.5 -98t-40.5 -97.5t-97.5 -40.5z" />
<glyph unicode="&#x2026;" horiz-adv-x="762" d="M549 50q0 25 17.5 42.5t43.5 17.5q24 0 41.5 -17.5t17.5 -42.5t-17.5 -42.5t-41.5 -17.5q-25 0 -43 17.5t-18 42.5zM295 50q0 25 17.5 42.5t43.5 17.5q24 0 41.5 -17.5t17.5 -42.5t-17.5 -42.5t-41.5 -17.5q-25 0 -43 17.5t-18 42.5zM41 50q0 25 17.5 42.5t43.5 17.5 q24 0 41.5 -17.5t17.5 -42.5t-17.5 -42.5t-41.5 -17.5q-25 0 -43 17.5t-18 42.5z" />
<glyph unicode="&#x202f;" horiz-adv-x="171" />
<glyph unicode="&#x2039;" horiz-adv-x="256" d="M135 105l-92 97l107 93h55l-111 -93l91 -97h-50z" />
<glyph unicode="&#x203a;" horiz-adv-x="256" d="M50 105l111 93l-91 97h50l92 -97l-107 -93h-55z" />
<glyph unicode="&#x205f;" horiz-adv-x="214" />
<glyph unicode="&#x20ac;" horiz-adv-x="658" d="M542 0l-24 44q-89 -57 -166 -57q-47 0 -95.5 21.5t-80.5 56.5q-65 71 -65 184q0 19 3 40h-63l19 30h48l7 30h-61l19 30h51q44 130 140 215.5t198 85.5q80 0 131 -61l34 48h20l-41 -194h-20q1 16 1 30q0 74 -30 114t-85 40q-155 0 -231 -278h231l-19 -30h-219l-6 -30h206 l-19 -30h-192q-7 -49 -7 -94q0 -87 39 -136t108 -49q63 0 113.5 42t95.5 133h20l-40 -185h-20z" />
<glyph unicode="&#x2122;" horiz-adv-x="865" d="M399 286l4 19h51l73 343h-51l4 19h133l33 -270l147 270h134l-4 -19h-50l-73 -343h51l-5 -19h-174l4 19h50l70 327l-189 -346h-22l-41 345l-69 -326h51l-5 -19h-122zM122 286l4 19h50l73 344h-8q-56 0 -83 -21.5t-46 -81.5h-19l26 121h341l-26 -121h-19q3 22 3 32 q0 40 -18.5 55.5t-67.5 15.5h-9l-73 -344h51l-5 -19h-174z" />
<glyph unicode="&#x25fc;" horiz-adv-x="405" d="M0 405h405v-405h-405v405z" />
</font>
</defs>
</svg>
